<?xml version="1.0" encoding="UTF-8"?>
<svg version="1.1" xmlns="http://www.w3.org/2000/svg" width="1367" height="136">
<path d="M0 0 C2.03303163 0.81520511 4.06721004 1.62730444 6.10325623 2.43495178 C7.94829803 3.16792342 9.78982962 3.90971351 11.63110352 4.65209961 C16.16135414 6.33071277 20.81000808 7.67425242 25.4375 9.0625 C25.4375 17.3125 25.4375 25.5625 25.4375 34.0625 C22.3746875 35.795 22.3746875 35.795 19.25 37.5625 C14.38045017 40.32438536 9.60600533 43.1915822 4.875 46.1875 C-12.96355087 57.23869981 -28.52444299 59.19734993 -49.1640625 59.265625 C-49.83562756 59.26845238 -50.50719261 59.27127975 -51.19910812 59.27419281 C-54.74439617 59.28903713 -58.28964499 59.29836275 -61.83496094 59.30273438 C-65.46360081 59.30823803 -69.09186916 59.33234805 -72.72039223 59.36070633 C-75.54477977 59.37944332 -78.369079 59.38454386 -81.19352341 59.38607025 C-83.17305625 59.39050513 -85.15254155 59.40907616 -87.13198853 59.42803955 C-95.57151949 59.40730993 -103.77469111 59.20557546 -110.5 53.625 C-112.23601974 51.46812699 -113.90845669 49.2820282 -115.5625 47.0625 C-115.99820312 47.60519531 -116.43390625 48.14789063 -116.8828125 48.70703125 C-121.78030025 54.59037693 -125.88015033 57.7856514 -133.5625 59.0625 C-135.39062311 59.15525197 -137.22154241 59.20035544 -139.05200195 59.20776367 C-140.12694412 59.21414352 -141.20188629 59.22052338 -142.30940247 59.22709656 C-144.03763496 59.22876579 -144.03763496 59.22876579 -145.80078125 59.23046875 C-146.99551559 59.23379715 -148.19024994 59.23712555 -149.42118835 59.24055481 C-151.94704809 59.24561343 -154.4729145 59.24796346 -156.9987793 59.24780273 C-160.85021058 59.24998595 -164.70135386 59.26814434 -168.55273438 59.28710938 C-171.01041569 59.29004421 -173.46809836 59.2920284 -175.92578125 59.29296875 C-177.64490471 59.30374702 -177.64490471 59.30374702 -179.39875793 59.31474304 C-187.13164521 59.29280348 -194.60456785 59.22702864 -200.875 54.125 C-201.51050781 53.62097656 -202.14601563 53.11695313 -202.80078125 52.59765625 C-204.46391041 51.14841066 -206.02689824 49.64535104 -207.5625 48.0625 C-207.92601562 48.53300781 -208.28953125 49.00351563 -208.6640625 49.48828125 C-213.52967523 55.51415548 -217.82365142 57.99308869 -225.5625 59.0625 C-227.4951261 59.15354428 -229.4302355 59.20022413 -231.36499023 59.20776367 C-232.48312607 59.21414352 -233.6012619 59.22052338 -234.75328064 59.22709656 C-235.94715897 59.22820938 -237.14103729 59.2293222 -238.37109375 59.23046875 C-239.61117691 59.23379715 -240.85126007 59.23712555 -242.12892151 59.24055481 C-244.7471581 59.24560938 -247.36540111 59.24796359 -249.98364258 59.24780273 C-252.65949234 59.24772131 -255.33517151 59.25469006 -258.01098633 59.26831055 C-261.88107514 59.28664769 -265.75096581 59.29153981 -269.62109375 59.29296875 C-271.40887489 59.30374702 -271.40887489 59.30374702 -273.23277283 59.31474304 C-287.34898953 59.27601047 -287.34898953 59.27601047 -291.875 54.75 C-293.45669792 52.23099961 -294.59959163 49.87098275 -295.5625 47.0625 C-296.18125 48.67125 -296.18125 48.67125 -296.8125 50.3125 C-298.31508768 53.68649235 -299.37836553 55.9928126 -302.5625 58.0625 C-308.78585176 59.40808957 -314.71936833 59.74060202 -320.5625 57.0625 C-323.32776088 53.76202734 -323.92726936 51.31814258 -323.5625 47.0625 C-324.2225 47.0625 -324.8825 47.0625 -325.5625 47.0625 C-325.624375 47.784375 -325.68625 48.50625 -325.75 49.25 C-326.84304516 53.03361788 -328.53940756 54.57684621 -331.5625 57.0625 C-336.57592224 59.56921112 -341.20314376 59.17950267 -346.5625 58.0625 C-346.8925 57.7325 -347.2225 57.4025 -347.5625 57.0625 C-347.63726563 57.77535156 -347.71203125 58.48820312 -347.7890625 59.22265625 C-348.56353299 64.86414223 -349.40371231 69.35525569 -353.46875 73.5 C-366.36073529 83.12088455 -381.2674251 84.1536879 -396.6875 82.78515625 C-406.65223565 81.29893857 -415.31462818 77.1097589 -421.5625 69.0625 C-426.67503098 60.93694136 -427.92728964 53.00241417 -427.875 43.5625 C-427.87371094 42.59940918 -427.87242187 41.63631836 -427.87109375 40.64404297 C-427.76248558 32.48892729 -426.62600415 24.94803373 -424.5625 17.0625 C-418.76302651 17.68857952 -413.22440169 18.73650938 -407.5625 20.125 C-406.78777344 20.31126953 -406.01304687 20.49753906 -405.21484375 20.68945312 C-403.32979241 21.14326178 -401.4460073 21.60232492 -399.5625 22.0625 C-399.706875 22.86171875 -399.85125 23.6609375 -400 24.484375 C-402.5821126 37.30810197 -402.5821126 37.30810197 -400.29296875 49.78125 C-398.42817871 52.23957367 -397.37436407 52.92334432 -394.5625 54.0625 C-391.44677728 54.46941758 -388.32720801 54.38696535 -385.1875 54.375 C-384.34960938 54.39111328 -383.51171875 54.40722656 -382.6484375 54.42382812 C-377.54797511 54.42783792 -373.96176268 53.93249517 -369.5625 51.0625 C-366.97010881 45.87771762 -368.56878584 40.56976014 -370.25537109 35.3347168 C-372.20433733 29.44983314 -372.20433733 29.44983314 -374.7265625 23.796875 C-375.5625 22.0625 -375.5625 22.0625 -375.5625 19.0625 C-371.96562101 17.3591371 -368.35896081 15.67759411 -364.75 14 C-363.72583984 13.51466797 -362.70167969 13.02933594 -361.64648438 12.52929688 C-360.17211914 11.84770508 -360.17211914 11.84770508 -358.66796875 11.15234375 C-357.76199951 10.72816162 -356.85603027 10.30397949 -355.92260742 9.86694336 C-353.5625 9.0625 -353.5625 9.0625 -350.5625 10.0625 C-349.48754883 12.01196289 -349.48754883 12.01196289 -348.51953125 14.53515625 C-347.99262695 15.88383789 -347.99262695 15.88383789 -347.45507812 17.25976562 C-347.09865234 18.20529297 -346.74222656 19.15082031 -346.375 20.125 C-346.00697266 21.07439453 -345.63894531 22.02378906 -345.25976562 23.00195312 C-344.3505365 25.35177906 -343.45200026 27.70515039 -342.5625 30.0625 C-340.5825 30.0625 -338.6025 30.0625 -336.5625 30.0625 C-336.2325 24.7825 -335.9025 19.5025 -335.5625 14.0625 C-328.9625 14.0625 -322.3625 14.0625 -315.5625 14.0625 C-315.0675 21.9825 -315.0675 21.9825 -314.5625 30.0625 C-312.9125 30.3925 -311.2625 30.7225 -309.5625 31.0625 C-309.5625 25.1225 -309.5625 19.1825 -309.5625 13.0625 C-302.3025 13.0625 -295.0425 13.0625 -287.5625 13.0625 C-287.43229167 16.31770833 -287.30208333 19.57291667 -287.171875 22.828125 C-286.44514539 26.68538215 -285.62029869 27.67470107 -282.5625 30.0625 C-279.66523656 30.67694842 -279.66523656 30.67694842 -276.41699219 30.60839844 C-274.55551544 30.63797638 -274.55551544 30.63797638 -272.65643311 30.66815186 C-271.30741419 30.66981488 -269.95839468 30.67104582 -268.609375 30.671875 C-267.22501695 30.68685961 -265.84067676 30.70358737 -264.45635986 30.72198486 C-260.81989717 30.76564018 -257.18367561 30.78565303 -253.54699707 30.80072021 C-249.83326978 30.82029818 -246.11980265 30.86226729 -242.40625 30.90234375 C-235.12503709 30.97762621 -227.84402868 31.02585861 -220.5625 31.0625 C-220.2325 25.1225 -219.9025 19.1825 -219.5625 13.0625 C-211.3125 13.0625 -203.0625 13.0625 -194.5625 13.0625 C-194.2325 19.0025 -193.9025 24.9425 -193.5625 31.0625 C-172.4425 31.0625 -151.3225 31.0625 -129.5625 31.0625 C-129.2325 25.1225 -128.9025 19.1825 -128.5625 13.0625 C-119.9825 13.0625 -111.4025 13.0625 -102.5625 13.0625 C-102.5625 19.0025 -102.5625 24.9425 -102.5625 31.0625 C-92.6418224 31.04460531 -82.72181987 31.00521906 -72.80140495 30.93040943 C-68.19241 30.89646148 -63.58373514 30.87108054 -58.97460938 30.86694336 C-29.91584512 30.93667421 -29.91584512 30.93667421 -1.5625 25.0625 C-2.1944931 24.89834595 -2.82648621 24.73419189 -3.47763062 24.56506348 C-4.32209747 24.34572144 -5.16656433 24.12637939 -6.03662109 23.90039062 C-6.91695007 23.67198486 -7.79727905 23.4435791 -8.70428467 23.20825195 C-10.53245214 22.73284303 -12.35954906 22.25331266 -14.18603516 21.77148438 C-20.78410607 20.08961189 -20.78410607 20.08961189 -27.5625 20.0625 C-30.41030619 22.29456431 -31.41247666 23.61242999 -32.5625 27.0625 C-39.11099313 25.90045007 -45.30788144 24.32866615 -51.5625 22.0625 C-50.63768773 11.4271589 -46.4448079 3.28794891 -38.5625 -3.9375 C-26.04968564 -11.94570119 -12.3909202 -5.01427652 0 0 Z " fill="#EFF0F1" transform="translate(1331.5625,47.9375)"/>
<path d="M0 0 C9.26851327 5.59608348 14.60999345 13.36846241 17.28125 23.7734375 C20.14458152 36.96606656 21.45243126 52.07837512 15.0234375 64.48828125 C10.61191108 70.75170513 4.80751638 75.20119607 -2.6875 77 C-11.0781235 78.22275138 -19.4618635 78.16386894 -27.921875 78.16796875 C-29.48887156 78.17118752 -31.05586782 78.17455204 -32.62286377 78.17805481 C-35.89067279 78.18401185 -39.15845547 78.18589798 -42.42626953 78.18530273 C-46.60804944 78.18520067 -50.78966127 78.19891387 -54.97140121 78.21607494 C-58.20048803 78.227197 -61.429534 78.22922197 -64.658638 78.22869301 C-66.20077347 78.22987046 -67.74291009 78.23427902 -69.28502655 78.24202538 C-71.43851075 78.25184066 -73.59162686 78.24894262 -75.74511719 78.24291992 C-77.5797049 78.24505745 -77.5797049 78.24505745 -79.45135498 78.24723816 C-84.26341912 77.8796014 -87.51530314 76.67307005 -90.6875 73 C-90.85765625 73.79664062 -91.0278125 74.59328125 -91.203125 75.4140625 C-93.65418511 86.13093171 -97.7958007 92.47858444 -106.6875 99 C-112.95426322 102.80397791 -119.33309078 106.11836369 -126.6875 107 C-128.33939537 103.58623193 -129.98294896 100.1685128 -131.625 96.75 C-132.09357422 95.78191406 -132.56214844 94.81382813 -133.04492188 93.81640625 C-133.7168457 92.41455078 -133.7168457 92.41455078 -134.40234375 90.984375 C-135.02290649 89.69611816 -135.02290649 89.69611816 -135.65600586 88.38183594 C-136.57896077 86.25062929 -137.20807857 84.26635587 -137.6875 82 C-136.74648438 81.68546875 -135.80546875 81.3709375 -134.8359375 81.046875 C-133.59070313 80.61890625 -132.34546875 80.1909375 -131.0625 79.75 C-129.83273437 79.33234375 -128.60296875 78.9146875 -127.3359375 78.484375 C-123.73710817 77.02018319 -120.87852954 75.18973875 -117.6875 73 C-117.0275 73 -116.3675 73 -115.6875 73 C-111.12744332 63.02259598 -113.9798417 52.49671956 -116.8125 42.43359375 C-117.6875 39 -117.6875 39 -117.6875 35 C-114.06439672 33.66147204 -110.43871856 32.33006282 -106.8125 31 C-105.77996094 30.6184375 -104.74742187 30.236875 -103.68359375 29.84375 C-102.69746094 29.4828125 -101.71132813 29.121875 -100.6953125 28.75 C-99.78410645 28.41484375 -98.87290039 28.0796875 -97.93408203 27.734375 C-95.6875 27 -95.6875 27 -93.6875 27 C-93.48592285 27.59538574 -93.2843457 28.19077148 -93.07666016 28.80419922 C-92.16132801 31.49656907 -91.23703499 34.18577718 -90.3125 36.875 C-89.99539063 37.81214844 -89.67828125 38.74929687 -89.3515625 39.71484375 C-89.0421875 40.61074219 -88.7328125 41.50664063 -88.4140625 42.4296875 C-88.13127441 43.25710449 -87.84848633 44.08452148 -87.55712891 44.93701172 C-86.76823272 47.17054378 -86.76823272 47.17054378 -84.6875 49 C-82.09964534 49.21735168 -79.61551958 49.31138821 -77.02490234 49.31884766 C-75.83940544 49.33391609 -75.83940544 49.33391609 -74.62995911 49.34928894 C-72.01112615 49.38024134 -69.39239595 49.39718933 -66.7734375 49.4140625 C-64.96024687 49.43276447 -63.14706502 49.45233715 -61.33389282 49.4727478 C-56.55653047 49.52417765 -51.77913987 49.56374513 -47.00164795 49.60089111 C-42.12863108 49.64086291 -37.25573283 49.69198629 -32.3828125 49.7421875 C-22.81779153 49.83907519 -13.25270375 49.92343871 -3.6875 50 C-3.6875 49.01 -3.6875 48.02 -3.6875 47 C-4.821875 47.04640625 -5.95625 47.0928125 -7.125 47.140625 C-23.51104465 47.61834695 -23.51104465 47.61834695 -28.6875 43 C-33.6632735 37.52664915 -33.37525564 31.01752787 -33.06640625 23.94921875 C-32.19842225 14.90249891 -28.49744806 8.02918968 -21.6875 2 C-14.94664694 -2.14821727 -7.47282256 -2.02652815 0 0 Z M-20.6875 25 C-20.3575 25.99 -20.0275 26.98 -19.6875 28 C-15.40452469 29.05619003 -11.25764354 29.11702092 -6.875 29.0625 C-6.18212891 29.05798828 -5.48925781 29.05347656 -4.77539062 29.04882812 C-3.07938932 29.03713156 -1.38343297 29.01919924 0.3125 29 C-0.90710919 25.2342048 -0.90710919 25.2342048 -3.75 22.6875 C-9.9738888 21.23084517 -15.42819839 20.92828262 -20.6875 25 Z " fill="#EFF0F1" transform="translate(596.6875,29)"/>
<path d="M0 0 C3.0036808 14.24960474 5.4560275 27.68996707 -1.7578125 41.1171875 C-6.28510288 47.97930688 -13.19151458 51.10379246 -21 53 C-28.44863255 54.03508148 -35.88558609 54.17390179 -43.39453125 54.203125 C-45.12010506 54.21167511 -45.12010506 54.21167511 -46.88053894 54.22039795 C-49.29494319 54.22978737 -51.7093599 54.23635761 -54.1237793 54.24023438 C-57.81907009 54.25001739 -61.5138219 54.28112898 -65.20898438 54.3125 C-67.56249672 54.31902389 -69.91601301 54.32427676 -72.26953125 54.328125 C-73.92273125 54.3466452 -73.92273125 54.3466452 -75.60932922 54.36553955 C-77.15199715 54.3610379 -77.15199715 54.3610379 -78.72583008 54.35644531 C-80.07624138 54.36191376 -80.07624138 54.36191376 -81.45393372 54.36749268 C-85.50540215 53.78271411 -88.14848098 51.85151902 -91 49 C-91.18175781 49.72445312 -91.36351562 50.44890625 -91.55078125 51.1953125 C-91.92783203 52.64550781 -91.92783203 52.64550781 -92.3125 54.125 C-92.55613281 55.07632813 -92.79976562 56.02765625 -93.05078125 57.0078125 C-96.13336998 66.72494407 -102.38226703 72.70298885 -111.33203125 77.35546875 C-122.85862934 83 -122.85862934 83 -127 83 C-128.84307955 79.40073658 -130.67276517 75.79482969 -132.5 72.1875 C-133.02464844 71.16333984 -133.54929687 70.13917969 -134.08984375 69.08398438 C-134.58613281 68.10107422 -135.08242188 67.11816406 -135.59375 66.10546875 C-136.05458984 65.19949951 -136.51542969 64.29353027 -136.99023438 63.36010742 C-138 61 -138 61 -138 58 C-136.96552734 57.65388672 -136.96552734 57.65388672 -135.91015625 57.30078125 C-124.39016596 53.42258472 -124.39016596 53.42258472 -115 46 C-111.25461867 34.763856 -116.22963475 22.00919061 -119 11 C-115.21008507 9.66165014 -111.41779164 8.33017337 -107.625 7 C-106.54476562 6.6184375 -105.46453125 6.236875 -104.3515625 5.84375 C-103.3203125 5.4828125 -102.2890625 5.121875 -101.2265625 4.75 C-100.27346191 4.41484375 -99.32036133 4.0796875 -98.33837891 3.734375 C-96 3 -96 3 -94 3 C-93.79842285 3.59538574 -93.5968457 4.19077148 -93.38916016 4.80419922 C-92.47382801 7.49656907 -91.54953499 10.18577718 -90.625 12.875 C-90.30789063 13.81214844 -89.99078125 14.74929687 -89.6640625 15.71484375 C-89.3546875 16.61074219 -89.0453125 17.50664063 -88.7265625 18.4296875 C-88.44377441 19.25710449 -88.16098633 20.08452148 -87.86962891 20.93701172 C-87.08073272 23.17054378 -87.08073272 23.17054378 -85 25 C-82.16629807 25.2936501 -82.16629807 25.2936501 -78.80615234 25.22705078 C-77.50495453 25.22689972 -76.20375671 25.22674866 -74.86312866 25.22659302 C-73.43739673 25.21637893 -72.01166635 25.20594692 -70.5859375 25.1953125 C-69.13148187 25.19158295 -67.67702373 25.1887357 -66.2225647 25.18673706 C-62.39201944 25.179096 -58.56162554 25.15944357 -54.73114014 25.1373291 C-50.82338509 25.11688078 -46.91560561 25.10773752 -43.0078125 25.09765625 C-35.33847262 25.07619802 -27.66925751 25.04205651 -20 25 C-20.28875 23.97519531 -20.5775 22.95039062 -20.875 21.89453125 C-21.25033381 20.53394621 -21.62531524 19.17326392 -22 17.8125 C-22.19078125 17.13896484 -22.3815625 16.46542969 -22.578125 15.77148438 C-23.5825836 12.09444844 -24.23704741 8.8149818 -24 5 C-20.37579876 4.1631665 -16.75051363 3.33112766 -13.125 2.5 C-12.09246094 2.26152344 -11.05992187 2.02304687 -9.99609375 1.77734375 C-9.00996094 1.55175781 -8.02382813 1.32617188 -7.0078125 1.09375 C-6.09660645 0.88427734 -5.18540039 0.67480469 -4.24658203 0.45898438 C-2 0 -2 0 0 0 Z " fill="#EFF0F1" transform="translate(875,53)"/>
<path d="M0 0 C7.70723337 4.57317167 11.56445031 11.96928442 14.21484375 20.2890625 C15.77296558 28.45065302 15.66790264 38.02076664 11.625 45.4375 C7.9692684 50.76415942 5.01848226 53.82322525 -1.375 55.4375 C-10.83515833 56.30330184 -19.97417438 54.69094342 -29.375 53.4375 C-29.375 63.6675 -29.375 73.8975 -29.375 84.4375 C-38.285 84.4375 -47.195 84.4375 -56.375 84.4375 C-56.44426118 79.06591061 -56.50387515 73.6959006 -56.53979492 68.32421875 C-56.55478489 66.50092285 -56.57518384 64.6776624 -56.60131836 62.85449219 C-56.93822324 38.72945999 -56.93822324 38.72945999 -49.375 29.4375 C-45.17199375 25.23449375 -42.32029308 23.79421758 -36.375 23.4375 C-36.16875 22.138125 -35.9625 20.83875 -35.75 19.5 C-34.00343073 11.83918581 -30.16696116 6.35915184 -23.6875 1.9375 C-16.65780042 -2.43329766 -7.71221682 -3.49063585 0 0 Z M-20.375 27.4375 C-16.95023079 30.86226921 -12.07350442 31.02778513 -7.375 31.4375 C-3.8384753 30.73986947 -3.8384753 30.73986947 -1.375 29.4375 C-1.375 28.4475 -1.375 27.4575 -1.375 26.4375 C-4.78867072 23.55721533 -7.92613055 22.92302034 -12.37109375 23.06640625 C-15.71115703 23.68493649 -17.74650697 25.33470558 -20.375 27.4375 Z " fill="#EFF0F1" transform="translate(734.375,51.5625)"/>
<path d="M0 0 C0.77794922 -0.02900391 1.55589844 -0.05800781 2.35742188 -0.08789062 C7.97914526 -0.14884342 12.77833188 0.7964158 17.3125 4.3125 C18.53393555 6.4519043 18.53393555 6.4519043 19.3125 8.3125 C18.44238281 8.82296875 18.44238281 8.82296875 17.5546875 9.34375 C8.18050509 15.1600744 3.88005179 22.4498218 -0.6875 32.3125 C-1.3475 32.3125 -2.0075 32.3125 -2.6875 32.3125 C-2.790625 33.22 -2.89375 34.1275 -3 35.0625 C-3.69654617 38.35526372 -4.3280968 39.9530968 -6.6875 42.3125 C-7.6775 42.3125 -8.6675 42.3125 -9.6875 42.3125 C-9.996875 43.446875 -10.30625 44.58125 -10.625 45.75 C-11.6875 49.3125 -11.6875 49.3125 -12.6875 50.3125 C-12.84968587 51.91333461 -12.96599417 53.51886728 -13.0625 55.125 C-13.56428869 61.3932456 -15.00982584 67.26654216 -16.6875 73.3125 C-17.6775 73.3125 -18.6675 73.3125 -19.6875 73.3125 C-19.67702637 72.6419458 -19.66655273 71.9713916 -19.65576172 71.28051758 C-19.61406829 68.22871684 -19.58813147 65.17697616 -19.5625 62.125 C-19.54574219 61.06990234 -19.52898438 60.01480469 -19.51171875 58.92773438 C-19.50527344 57.90615234 -19.49882813 56.88457031 -19.4921875 55.83203125 C-19.48171387 54.89464111 -19.47124023 53.95725098 -19.46044922 52.99145508 C-19.70653297 50.08793144 -20.56185908 47.98193269 -21.6875 45.3125 C-21.6875 44.3225 -21.6875 43.3325 -21.6875 42.3125 C-24.3275 42.3125 -26.9675 42.3125 -29.6875 42.3125 C-29.6875 43.3025 -29.6875 44.2925 -29.6875 45.3125 C-30.3475 45.3125 -31.0075 45.3125 -31.6875 45.3125 C-32.55137807 49.03862438 -32.80920823 52.47475664 -32.80102539 56.29614258 C-32.80091209 58.06741264 -32.80091209 58.06741264 -32.80079651 59.87446594 C-32.79563522 61.13921249 -32.79047394 62.40395905 -32.78515625 63.70703125 C-32.7837413 65.00952316 -32.78232635 66.31201508 -32.78086853 67.65397644 C-32.77706355 71.10466454 -32.76725064 74.55531008 -32.75616455 78.00598145 C-32.74590689 81.53197657 -32.7413616 85.05797861 -32.73632812 88.58398438 C-32.72562644 95.49350876 -32.70804612 102.40299795 -32.6875 109.3125 C-28.7275 109.3125 -24.7675 109.3125 -20.6875 109.3125 C-20.59662109 110.66794922 -20.59662109 110.66794922 -20.50390625 112.05078125 C-20.42011719 113.23027344 -20.33632813 114.40976563 -20.25 115.625 C-20.16878906 116.79675781 -20.08757813 117.96851562 -20.00390625 119.17578125 C-19.8007629 122.33840958 -19.8007629 122.33840958 -18.6875 125.3125 C-16.7075 125.3125 -14.7275 125.3125 -12.6875 125.3125 C-12.0275 123.6625 -11.3675 122.0125 -10.6875 120.3125 C-10.0275 120.3125 -9.3675 120.3125 -8.6875 120.3125 C-4.6875 127.0625 -4.6875 127.0625 -4.6875 129.3125 C-4.0275 129.3125 -3.3675 129.3125 -2.6875 129.3125 C-2.6875 129.9725 -2.6875 130.6325 -2.6875 131.3125 C-21.1675 131.3125 -39.6475 131.3125 -58.6875 131.3125 C-58.6875 128.0125 -58.6875 124.7125 -58.6875 121.3125 C-57.6975 121.3125 -56.7075 121.3125 -55.6875 121.3125 C-55.6875 120.3225 -55.6875 119.3325 -55.6875 118.3125 C-54.3675 118.3125 -53.0475 118.3125 -51.6875 118.3125 C-51.6875 117.3225 -51.6875 116.3325 -51.6875 115.3125 C-50.2025 114.8175 -50.2025 114.8175 -48.6875 114.3125 C-48.6875 113.6525 -48.6875 112.9925 -48.6875 112.3125 C-47.883125 112.18875 -47.07875 112.065 -46.25 111.9375 C-44.9815625 111.628125 -44.9815625 111.628125 -43.6875 111.3125 C-43.1925 110.3225 -43.1925 110.3225 -42.6875 109.3125 C-41.3675 109.3125 -40.0475 109.3125 -38.6875 109.3125 C-38.77198869 101.70604537 -38.86690506 94.09978099 -38.97502708 86.49362659 C-39.02491068 82.96152973 -39.07124107 79.42946161 -39.109375 75.8972168 C-39.15340254 71.83363239 -39.21302107 67.77040528 -39.2734375 63.70703125 C-39.28498871 62.4422847 -39.29653992 61.17753815 -39.30844116 59.87446594 C-39.32831085 58.69361923 -39.34818054 57.51277252 -39.36865234 56.29614258 C-39.38197601 55.25911697 -39.39529968 54.22209137 -39.4090271 53.15364075 C-39.69930938 50.19201395 -40.53398362 48.03544879 -41.6875 45.3125 C-41.6875 44.3225 -41.6875 43.3325 -41.6875 42.3125 C-43.1725 41.8175 -43.1725 41.8175 -44.6875 41.3125 C-44.86229953 37.75062343 -44.96851143 34.18985227 -45.0625 30.625 C-45.11277344 29.61759766 -45.16304687 28.61019531 -45.21484375 27.57226562 C-45.3599789 20.24294039 -45.3599789 20.24294039 -43.39550781 17.52490234 C-39.24316812 14.01750052 -36.33666171 13.18867254 -31.0625 13.25 C-29.55816406 13.26353516 -29.55816406 13.26353516 -28.0234375 13.27734375 C-27.25257812 13.28894531 -26.48171875 13.30054688 -25.6875 13.3125 C-25.59984375 12.69375 -25.5121875 12.075 -25.421875 11.4375 C-24.6875 9.3125 -24.6875 9.3125 -23.015625 8.1875 C-22.32984375 7.89875 -21.6440625 7.61 -20.9375 7.3125 C-17.39989759 5.71140267 -14.68788822 3.79853596 -11.6875 1.3125 C-7.79179113 0.01393038 -4.06219608 0.04925864 0 0 Z M-40.6875 32.3125 C-40.6875 33.9625 -40.6875 35.6125 -40.6875 37.3125 C-40.0275 37.3125 -39.3675 37.3125 -38.6875 37.3125 C-38.6875 35.6625 -38.6875 34.0125 -38.6875 32.3125 C-39.3475 32.3125 -40.0075 32.3125 -40.6875 32.3125 Z M-35.6875 32.3125 C-35.6875 33.9625 -35.6875 35.6125 -35.6875 37.3125 C-35.0275 37.3125 -34.3675 37.3125 -33.6875 37.3125 C-33.6875 35.6625 -33.6875 34.0125 -33.6875 32.3125 C-34.3475 32.3125 -35.0075 32.3125 -35.6875 32.3125 Z M-30.6875 32.3125 C-30.6875 33.9625 -30.6875 35.6125 -30.6875 37.3125 C-30.0275 36.9825 -29.3675 36.6525 -28.6875 36.3125 C-28.6875 34.9925 -28.6875 33.6725 -28.6875 32.3125 C-29.3475 32.3125 -30.0075 32.3125 -30.6875 32.3125 Z M-26.6875 32.3125 C-26.6875 33.9625 -26.6875 35.6125 -26.6875 37.3125 C-26.0275 37.3125 -25.3675 37.3125 -24.6875 37.3125 C-24.3575 35.6625 -24.0275 34.0125 -23.6875 32.3125 C-24.6775 32.3125 -25.6675 32.3125 -26.6875 32.3125 Z M-21.6875 32.3125 C-21.6875 33.9625 -21.6875 35.6125 -21.6875 37.3125 C-21.0275 37.3125 -20.3675 37.3125 -19.6875 37.3125 C-19.6875 35.6625 -19.6875 34.0125 -19.6875 32.3125 C-20.3475 32.3125 -21.0075 32.3125 -21.6875 32.3125 Z M-16.6875 32.3125 C-16.6875 33.9625 -16.6875 35.6125 -16.6875 37.3125 C-16.0275 37.3125 -15.3675 37.3125 -14.6875 37.3125 C-14.6875 35.6625 -14.6875 34.0125 -14.6875 32.3125 C-15.3475 32.3125 -16.0075 32.3125 -16.6875 32.3125 Z M-11.6875 32.3125 C-11.6875 33.9625 -11.6875 35.6125 -11.6875 37.3125 C-11.0275 35.9925 -10.3675 34.6725 -9.6875 33.3125 C-10.3475 32.9825 -11.0075 32.6525 -11.6875 32.3125 Z M-7.6875 32.3125 C-7.6875 33.9625 -7.6875 35.6125 -7.6875 37.3125 C-7.0275 37.3125 -6.3675 37.3125 -5.6875 37.3125 C-5.6875 35.6625 -5.6875 34.0125 -5.6875 32.3125 C-6.3475 32.3125 -7.0075 32.3125 -7.6875 32.3125 Z " fill="#E9EAEB" transform="translate(69.6875,-0.3125)"/>
<path d="M0 0 C9.76599701 5.72035278 13.95784556 14.99589738 18.62646484 24.85546875 C19.72631263 27.14891538 20.86617573 29.41855768 22.015625 31.6875 C33.0443044 53.72404997 36.7763218 74.56943277 36.96484375 99.0625 C36.97435059 100.08762695 36.98385742 101.11275391 36.99365234 102.16894531 C36.98712646 103.61479004 36.98712646 103.61479004 36.98046875 105.08984375 C36.97821289 105.9418335 36.97595703 106.79382324 36.97363281 107.67163086 C36.6818631 110.43766278 35.85175872 112.59855366 34.71484375 115.125 C32.96484375 115.0625 32.96484375 115.0625 30.71484375 114.125 C29.11982838 111.88335678 27.96941357 109.58933357 26.71484375 107.125 C26.41191406 107.71667969 26.10898438 108.30835937 25.796875 108.91796875 C23.25032173 113.72115999 20.90080578 117.61784262 16.71484375 121.125 C16.05484375 121.125 15.39484375 121.125 14.71484375 121.125 C15.12734375 119.908125 15.53984375 118.69125 15.96484375 117.4375 C16.55111123 115.66763591 17.13412259 113.89669168 17.71484375 112.125 C18.0396875 111.135 18.36453125 110.145 18.69921875 109.125 C19.75698136 105.80525274 20.74753933 102.47218038 21.71484375 99.125 C22.0190625 98.1246875 22.32328125 97.124375 22.63671875 96.09375 C28.70186065 72.97754878 25.45154057 48.51750627 13.76708984 27.89501953 C11.32874782 23.79340013 8.62265128 19.90514979 5.71484375 16.125 C5.8334375 16.83785156 5.95203125 17.55070312 6.07421875 18.28515625 C6.98683086 25.06586425 6.7879149 28.57081207 2.71484375 34.125 C2.05484375 34.125 1.39484375 34.125 0.71484375 34.125 C0.44671875 34.846875 0.17859375 35.56875 -0.09765625 36.3125 C-1.28515625 39.125 -1.28515625 39.125 -2.78515625 41.5 C-4.56080451 44.60738445 -5.40412232 47.66863613 -6.28515625 51.125 C-6.94515625 51.125 -7.60515625 51.125 -8.28515625 51.125 C-8.48109375 50.43535156 -8.67703125 49.74570312 -8.87890625 49.03515625 C-11.00110272 42.36670269 -13.6518367 37.9719867 -18.578125 33 C-21.67944179 29.59351931 -21.39495072 26.33588547 -21.34765625 21.9375 C-21.33863281 20.85082031 -21.32960938 19.76414062 -21.3203125 18.64453125 C-21.30871094 17.81308594 -21.29710938 16.98164063 -21.28515625 16.125 C-36.1812613 37.90641583 -44.04390153 61.67250629 -39.30859375 88.1953125 C-37.57331772 96.77445147 -35.61218407 104.902518 -32.06347656 112.92919922 C-31.28515625 115.125 -31.28515625 115.125 -31.28515625 119.125 C-30.62515625 119.125 -29.96515625 119.125 -29.28515625 119.125 C-29.28515625 119.785 -29.28515625 120.445 -29.28515625 121.125 C-32.53836653 120.88402146 -33.45880613 119.94700888 -35.78515625 117.5625 C-38.56207204 114.02902511 -40.39362209 110.18829561 -42.28515625 106.125 C-42.5275 106.69089844 -42.76984375 107.25679688 -43.01953125 107.83984375 C-43.52226563 108.94005859 -43.52226563 108.94005859 -44.03515625 110.0625 C-44.52242187 111.15884766 -44.52242187 111.15884766 -45.01953125 112.27734375 C-46.28515625 114.125 -46.28515625 114.125 -48.36328125 114.94140625 C-48.9975 115.00199219 -49.63171875 115.06257813 -50.28515625 115.125 C-53.27317044 112.13698581 -52.35208632 103.61716656 -52.359375 99.53515625 C-52.22276426 68.23691596 -44.24166364 28.13687108 -21.65625 4.4140625 C-15.37934397 -1.02906905 -8.01008884 -3.06711094 0 0 Z " fill="#E6E7E9" transform="translate(102.28515625,9.875)"/>
<path d="M0 0 C11.35543434 7.78658355 22.86936969 20.21781686 26 34 C26.81174972 42.36855382 27.44637707 51.02792773 22 58 C15.39573657 65.64704186 7.92724273 69.00727573 -2 70 C-10.91778556 70.52834277 -20.50334491 69.83221836 -29 67 C-28.35343144 58.10968231 -26.12977433 49.62806252 -24 41 C-22.906875 41.16371094 -21.81375 41.32742187 -20.6875 41.49609375 C-15.45545742 42.15009907 -10.26506338 42.10970402 -5 42.0625 C-4.03449219 42.05798828 -3.06898438 42.05347656 -2.07421875 42.04882812 C0.28392089 42.03715417 2.64192602 42.02078021 5 42 C2.19151323 39.16681071 -0.620235 36.33690379 -3.43505859 33.51000977 C-4.39234381 32.54769305 -5.34872994 31.58448108 -6.30419922 30.62036133 C-7.67699788 29.23544555 -9.05329472 27.85400009 -10.4296875 26.47265625 C-11.25710449 25.64000244 -12.08452148 24.80734863 -12.93701172 23.94946289 C-14.84775193 21.9555946 -14.84775193 21.9555946 -17 21 C-17 19 -17 19 -15 16.9375 C-14.54753906 16.50308594 -14.09507812 16.06867187 -13.62890625 15.62109375 C-8.74188603 10.75751247 -4.21851081 5.4489098 0 0 Z " fill="#EFF0F1" transform="translate(242,37)"/>
<path d="M0 0 C6.01376383 18.10234493 11.37643791 37.77590845 3 56 C-4.46485279 68.3653091 -16.68991447 75.3764966 -30 80 C-30.99 80 -31.98 80 -33 80 C-34.65189537 76.58623193 -36.29544896 73.1685128 -37.9375 69.75 C-38.40607422 68.78191406 -38.87464844 67.81382813 -39.35742188 66.81640625 C-40.0293457 65.41455078 -40.0293457 65.41455078 -40.71484375 63.984375 C-41.12855225 63.12553711 -41.54226074 62.26669922 -41.96850586 61.38183594 C-42.89146077 59.25062929 -43.52057857 57.26635587 -44 55 C-43.0821875 54.69707031 -42.164375 54.39414063 -41.21875 54.08203125 C-29.67603404 50.6967244 -29.67603404 50.6967244 -20.8203125 43.20703125 C-17.51226248 34.30680144 -20.66206319 24.18436657 -23.125 15.43359375 C-24 12 -24 12 -24 8 C-20.37689672 6.66147204 -16.75121856 5.33006282 -13.125 4 C-12.09246094 3.6184375 -11.05992187 3.236875 -9.99609375 2.84375 C-9.00996094 2.4828125 -8.02382813 2.121875 -7.0078125 1.75 C-6.09660645 1.41484375 -5.18540039 1.0796875 -4.24658203 0.734375 C-2 0 -2 0 0 0 Z " fill="#EFF0F1" transform="translate(336,56)"/>
<path d="M0 0 C0.78369141 1.85424805 0.78369141 1.85424805 1.3515625 4.26171875 C1.56296875 5.13376953 1.774375 6.00582031 1.9921875 6.90429688 C2.20101562 7.82275391 2.40984375 8.74121094 2.625 9.6875 C2.8415625 10.58662109 3.058125 11.48574219 3.28125 12.41210938 C7.03387916 28.19863265 8.24436075 43.47575508 0 58 C-0.66 58.99 -1.32 59.98 -2 61 C-2.66 61 -3.32 61 -4 61 C-4.20882812 61.56847656 -4.41765625 62.13695312 -4.6328125 62.72265625 C-9.47859066 70.79433816 -22.41116622 76.28701917 -31 79 C-31.99 79 -32.98 79 -34 79 C-35.83961674 75.21135025 -37.67062072 71.41860225 -39.5 67.625 C-40.28697266 66.00464844 -40.28697266 66.00464844 -41.08984375 64.3515625 C-41.83427734 62.8046875 -41.83427734 62.8046875 -42.59375 61.2265625 C-43.05458984 60.27346191 -43.51542969 59.32036133 -43.99023438 58.33837891 C-45 56 -45 56 -45 54 C-44.0821875 53.69707031 -43.164375 53.39414063 -42.21875 53.08203125 C-30.0339369 49.30372557 -30.0339369 49.30372557 -20.9375 40.9375 C-18.03676397 32.19762 -21.51374885 22.3942741 -24.16015625 14.03125 C-25 11 -25 11 -25 7 C-21.40134792 5.63084588 -17.79531881 4.28229369 -14.1875 2.9375 C-12.65125977 2.35258789 -12.65125977 2.35258789 -11.08398438 1.75585938 C-10.10107422 1.39169922 -9.11816406 1.02753906 -8.10546875 0.65234375 C-7.19949951 0.31195068 -6.29353027 -0.02844238 -5.36010742 -0.37915039 C-3 -1 -3 -1 0 0 Z " fill="#EFF0F1" transform="translate(429,57)"/>
<path d="M0 0 C1.19109375 0.00902344 2.3821875 0.01804687 3.609375 0.02734375 C4.91648437 0.04474609 4.91648437 0.04474609 6.25 0.0625 C6.27347061 7.2966098 6.29108783 14.530711 6.30181217 21.76485157 C6.3069668 25.12621252 6.31449447 28.48752704 6.32543945 31.84887695 C6.44605757 69.88615459 6.44605757 69.88615459 4.25 83.0625 C-3.67 83.0625 -11.59 83.0625 -19.75 83.0625 C-19.75 56.0025 -19.75 28.9425 -19.75 1.0625 C-6.25 -0.0625 -6.25 -0.0625 0 0 Z " fill="#EFF0F1" transform="translate(462.75,23.9375)"/>
<path d="M0 0 C1.19109375 0.00902344 2.3821875 0.01804687 3.609375 0.02734375 C4.91648437 0.04474609 4.91648437 0.04474609 6.25 0.0625 C6.27347061 7.2966098 6.29108783 14.530711 6.30181217 21.76485157 C6.3069668 25.12621252 6.31449447 28.48752704 6.32543945 31.84887695 C6.44605757 69.88615459 6.44605757 69.88615459 4.25 83.0625 C-3.67 83.0625 -11.59 83.0625 -19.75 83.0625 C-19.75 56.0025 -19.75 28.9425 -19.75 1.0625 C-6.25 -0.0625 -6.25 -0.0625 0 0 Z " fill="#EFF0F1" transform="translate(295.75,23.9375)"/>
<path d="M0 0 C1.19109375 0.00902344 2.3821875 0.01804687 3.609375 0.02734375 C4.91648437 0.04474609 4.91648437 0.04474609 6.25 0.0625 C6.27331239 8.83445894 6.29101042 17.60640699 6.30181217 26.37839031 C6.30700006 30.45287366 6.31402205 34.52733561 6.32543945 38.60180664 C6.33641546 42.54405232 6.34230755 46.48627758 6.34487724 50.42853737 C6.34670527 51.9221917 6.35027398 53.4158451 6.35573006 54.90949059 C6.41986451 73.21810532 6.41986451 73.21810532 5.25 82.0625 C4.92 82.3925 4.59 82.7225 4.25 83.0625 C-3.67 83.0625 -11.59 83.0625 -19.75 83.0625 C-19.75 56.0025 -19.75 28.9425 -19.75 1.0625 C-6.25 -0.0625 -6.25 -0.0625 0 0 Z " fill="#EFF0F1" transform="translate(642.75,23.9375)"/>
<path d="M0 0 C0.93134766 0.00322266 1.86269531 0.00644531 2.82226562 0.00976562 C4.26182617 0.02233398 4.26182617 0.02233398 5.73046875 0.03515625 C6.70951172 0.03966797 7.68855469 0.04417969 8.69726562 0.04882812 C11.10422986 0.06056941 13.51106732 0.07699206 15.91796875 0.09765625 C17.69970126 16.41899838 16.98782232 32.8446947 16.48046875 49.22265625 C16.46091125 49.89125671 16.44135376 50.55985718 16.42120361 51.24871826 C16.36398662 53.15945996 16.29932733 55.06997436 16.234375 56.98046875 C16.19771729 58.08793457 16.16105957 59.19540039 16.12329102 60.33642578 C15.91796875 63.09765625 15.91796875 63.09765625 14.91796875 66.09765625 C6.66796875 66.09765625 -1.58203125 66.09765625 -10.08203125 66.09765625 C-10.08203125 44.64765625 -10.08203125 23.19765625 -10.08203125 1.09765625 C-6.38668321 0.35858664 -3.66340992 -0.02247491 0 0 Z " fill="#EFF0F1" transform="translate(359.08203125,40.90234375)"/>
<path d="M0 0 C3.26533024 3.17462662 6.16918628 6.43865371 9 10 C10.0828125 11.0828125 10.0828125 11.0828125 11.1875 12.1875 C14.21473522 15.21473522 14.10154363 17.27541968 14.25 21.4375 C14.63169021 27.31811693 15.89595827 32.48777664 17.5625 38.125 C19.51596997 44.94106924 20.51249581 51.33964513 20.5625 58.4375 C20.57676025 59.23623535 20.59102051 60.0349707 20.60571289 60.85791016 C20.54295397 64.47142086 20.32806966 66.57532087 18.08984375 69.47265625 C13.1060988 73.114982 7.55596841 72.43818767 1.5625 72.6875 C0.40427734 72.74744141 -0.75394531 72.80738281 -1.94726562 72.86914062 C-3.05650391 72.91619141 -4.16574219 72.96324219 -5.30859375 73.01171875 C-6.83697876 73.08072388 -6.83697876 73.08072388 -8.39624023 73.15112305 C-11 73 -11 73 -14 71 C-14 70.01 -14 69.02 -14 68 C-11.5 66.3125 -11.5 66.3125 -9 65 C-10.485 61.535 -10.485 61.535 -12 58 C-12.66 58 -13.32 58 -14 58 C-13.72978439 50.5577707 -12.06746534 44.97269235 -8.6875 38.375 C-8.29626953 37.5809375 -7.90503906 36.786875 -7.50195312 35.96875 C-5.9878137 32.90531699 -4.45801995 29.85444845 -2.84350586 26.8425293 C1.70901991 18.2155595 1.42362293 9.49081953 0 0 Z M-1.86328125 37.1015625 C-5.51312003 43.19716953 -7.00146303 49.94860277 -6 57 C-4.28233038 61.15856856 -2.14093086 63.22531535 2 65 C4.67975596 65.01453953 4.67975596 65.01453953 7 64 C9.29013653 60.5647952 9.17842973 59.014669 9 55 C8.01 55.33 7.02 55.66 6 56 C6.2165625 55.07058594 6.433125 54.14117187 6.65625 53.18359375 C7.07390625 51.32927734 7.07390625 51.32927734 7.5 49.4375 C7.7784375 48.21933594 8.056875 47.00117187 8.34375 45.74609375 C8.99223112 42.04434735 9.25942808 38.74780916 9 35 C7.18192915 32.82079493 7.18192915 32.82079493 4.6875 32.5 C1.40283866 33.11109978 0.1060904 34.4550252 -1.86328125 37.1015625 Z " fill="#F0582C" transform="translate(93,63)"/>
<path d="M0 0 C3.51423905 1.49137007 5.68476369 3.50557913 8.3125 6.25 C12.04647173 10.07670282 15.8869659 13.58705681 20 17 C19.58990286 18.46019436 19.17140121 19.91802772 18.75 21.375 C18.40195313 22.59316406 18.40195313 22.59316406 18.046875 23.8359375 C16.57069667 28.29752126 14.74533198 32.63667004 13 37 C0.46 37.99 -12.08 38.98 -25 40 C-25 33.4 -25 26.8 -25 20 C-14.11 19.01 -14.11 19.01 -3 18 C-8.16997926 13.0742295 -8.16997926 13.0742295 -12 12 C-10.68842484 8.06527452 -8.66616553 6.87316576 -5.4375 4.3125 C-4.42558594 3.50425781 -3.41367187 2.69601563 -2.37109375 1.86328125 C-1.58863281 1.24839844 -0.80617188 0.63351562 0 0 Z " fill="#EFF0F1" transform="translate(1008,13)"/>
<path d="M0 0 C0.495 8.91 0.495 8.91 1 18 C-2.47661868 18.86915467 -4.83802984 19.09522781 -8.3515625 19.02734375 C-9.87523437 19.00897461 -9.87523437 19.00897461 -11.4296875 18.99023438 C-13.56777399 18.95494811 -15.70580094 18.91585775 -17.84375 18.87304688 C-18.85695313 18.86208984 -19.87015625 18.85113281 -20.9140625 18.83984375 C-22.3055249 18.81458618 -22.3055249 18.81458618 -23.72509766 18.78881836 C-26.20013384 18.77432112 -26.20013384 18.77432112 -28 21 C-28.33 22.32 -28.66 23.64 -29 25 C-33.62 25 -38.24 25 -43 25 C-43.41252348 17.4370696 -42.47054049 11.13825414 -37.6875 5.0625 C-30.43094056 -0.50648747 -22.47122515 0.73314164 -13.875 1.625 C-8.67556022 2.10974981 -4.77673737 0 0 0 Z " fill="#EFF0F1" transform="translate(380,14)"/>
<path d="M0 0 C1.77503906 0.03480469 1.77503906 0.03480469 3.5859375 0.0703125 C5.36871094 0.09738281 5.36871094 0.09738281 7.1875 0.125 C8.10273437 0.14820312 9.01796875 0.17140625 9.9609375 0.1953125 C9.3009375 0.5253125 8.6409375 0.8553125 7.9609375 1.1953125 C8.6209375 3.1753125 9.2809375 5.1553125 9.9609375 7.1953125 C11.2809375 7.1953125 12.6009375 7.1953125 13.9609375 7.1953125 C13.6309375 8.5153125 13.3009375 9.8353125 12.9609375 11.1953125 C11.9709375 11.1953125 10.9809375 11.1953125 9.9609375 11.1953125 C9.6515625 12.3296875 9.3421875 13.4640625 9.0234375 14.6328125 C7.9609375 18.1953125 7.9609375 18.1953125 6.9609375 19.1953125 C6.79875163 20.79614711 6.68244333 22.40167978 6.5859375 24.0078125 C6.08414881 30.2760581 4.63861166 36.14935466 2.9609375 42.1953125 C1.9709375 42.1953125 0.9809375 42.1953125 -0.0390625 42.1953125 C-0.02858887 41.5247583 -0.01811523 40.8542041 -0.00732422 40.16333008 C0.03436921 37.11152934 0.06030603 34.05978866 0.0859375 31.0078125 C0.10269531 29.95271484 0.11945312 28.89761719 0.13671875 27.81054688 C0.14316406 26.78896484 0.14960937 25.76738281 0.15625 24.71484375 C0.16672363 23.77745361 0.17719727 22.84006348 0.18798828 21.87426758 C-0.05809547 18.97074394 -0.91342158 16.86474519 -2.0390625 14.1953125 C-2.0390625 13.2053125 -2.0390625 12.2153125 -2.0390625 11.1953125 C-4.6790625 11.1953125 -7.3190625 11.1953125 -10.0390625 11.1953125 C-10.0390625 12.1853125 -10.0390625 13.1753125 -10.0390625 14.1953125 C-10.6990625 14.1953125 -11.3590625 14.1953125 -12.0390625 14.1953125 C-12.90294057 17.92143688 -13.16077073 21.35756914 -13.15258789 25.17895508 C-13.15251236 26.35980179 -13.15243683 27.5406485 -13.15235901 28.75727844 C-13.14719772 30.02202499 -13.14203644 31.28677155 -13.13671875 32.58984375 C-13.1353038 33.89233566 -13.13388885 35.19482758 -13.13243103 36.53678894 C-13.12862605 39.98747704 -13.11881314 43.43812258 -13.10772705 46.88879395 C-13.09746939 50.41478907 -13.0929241 53.94079111 -13.08789062 57.46679688 C-13.07718894 64.37631949 -13.06013693 71.28581395 -13.0390625 78.1953125 C-13.3690625 78.1953125 -13.6990625 78.1953125 -14.0390625 78.1953125 C-14.6990625 63.0153125 -15.3590625 47.8353125 -16.0390625 32.1953125 C-17.58856518 33.74481518 -17.25561443 35.29521844 -17.35546875 37.44921875 C-17.39736328 38.30322266 -17.43925781 39.15722656 -17.48242188 40.03710938 C-17.54139648 41.38385742 -17.54139648 41.38385742 -17.6015625 42.7578125 C-17.64474609 43.65951172 -17.68792969 44.56121094 -17.73242188 45.49023438 C-17.83884392 47.72509735 -17.94086238 49.96007558 -18.0390625 52.1953125 C-18.3690625 52.1953125 -18.6990625 52.1953125 -19.0390625 52.1953125 C-19.05888184 51.24277588 -19.07870117 50.29023926 -19.09912109 49.30883789 C-19.17585687 45.73583918 -19.26446228 42.16321216 -19.35644531 38.59057617 C-19.39445693 37.05158895 -19.42935543 35.51252126 -19.4609375 33.97338867 C-19.62654156 21.93668504 -19.62654156 21.93668504 -22.0390625 10.1953125 C-22.6990625 9.8653125 -23.3590625 9.5353125 -24.0390625 9.1953125 C-23.7090625 6.5553125 -23.3790625 3.9153125 -23.0390625 1.1953125 C-22.7090625 1.1953125 -22.3790625 1.1953125 -22.0390625 1.1953125 C-21.7090625 2.8453125 -21.3790625 4.4953125 -21.0390625 6.1953125 C-20.0490625 6.5253125 -19.0590625 6.8553125 -18.0390625 7.1953125 C-18.0390625 5.2153125 -18.0390625 3.2353125 -18.0390625 1.1953125 C-17.7090625 1.1953125 -17.3790625 1.1953125 -17.0390625 1.1953125 C-17.0390625 2.8453125 -17.0390625 4.4953125 -17.0390625 6.1953125 C-15.7190625 6.1953125 -14.3990625 6.1953125 -13.0390625 6.1953125 C-13.0390625 4.5453125 -13.0390625 2.8953125 -13.0390625 1.1953125 C-12.7090625 1.1953125 -12.3790625 1.1953125 -12.0390625 1.1953125 C-12.0390625 3.1753125 -12.0390625 5.1553125 -12.0390625 7.1953125 C-9.3990625 7.1953125 -6.7590625 7.1953125 -4.0390625 7.1953125 C-4.2453125 6.4115625 -4.4515625 5.6278125 -4.6640625 4.8203125 C-4.7878125 3.9540625 -4.9115625 3.0878125 -5.0390625 2.1953125 C-3.0390625 0.1953125 -3.0390625 0.1953125 0 0 Z M-2.0390625 1.1953125 C-2.0390625 2.8453125 -2.0390625 4.4953125 -2.0390625 6.1953125 C-1.3790625 6.1953125 -0.7190625 6.1953125 -0.0390625 6.1953125 C-0.0390625 4.5453125 -0.0390625 2.8953125 -0.0390625 1.1953125 C-0.6990625 1.1953125 -1.3590625 1.1953125 -2.0390625 1.1953125 Z M2.9609375 1.1953125 C2.9609375 2.8453125 2.9609375 4.4953125 2.9609375 6.1953125 C3.6209375 6.1953125 4.2809375 6.1953125 4.9609375 6.1953125 C4.9609375 4.5453125 4.9609375 2.8953125 4.9609375 1.1953125 C4.3009375 1.1953125 3.6409375 1.1953125 2.9609375 1.1953125 Z " fill="#DDDFE1" transform="translate(50.0390625,30.8046875)"/>
<path d="M0 0 C0.02888514 3.14581423 0.04675923 6.29159469 0.0625 9.4375 C0.07087891 10.33533203 0.07925781 11.23316406 0.08789062 12.15820312 C0.09272461 13.43920898 0.09272461 13.43920898 0.09765625 14.74609375 C0.10551147 15.93223267 0.10551147 15.93223267 0.11352539 17.14233398 C0 19 0 19 -1 20 C-2.41120902 20.22571184 -3.83176043 20.39388349 -5.25390625 20.53515625 C-6.0229126 20.61386963 -6.79191895 20.69258301 -7.58422852 20.77368164 C-8.56705811 20.8689917 -9.5498877 20.96430176 -10.5625 21.0625 C-13.676875 21.371875 -16.79125 21.68125 -20 22 C-20 15.4 -20 8.8 -20 2 C-17.69130549 0.84565274 -15.9415558 0.68779879 -13.375 0.4375 C-12.14910156 0.31181641 -12.14910156 0.31181641 -10.8984375 0.18359375 C-7.25633742 -0.04710531 -3.64930972 -0.02723365 0 0 Z " fill="#EFF0F1" transform="translate(500,30)"/>
<path d="M0 0 C0 6.27 0 12.54 0 19 C-6.89465623 20.13726288 -12.98714528 21 -20 21 C-20 14.4 -20 7.8 -20 1 C-13.27234345 0.23112497 -6.77070995 -0.09672443 0 0 Z " fill="#EFF0F1" transform="translate(1218,33)"/>
<path d="M0 0 C0 6.6 0 13.2 0 20 C-4.91500193 20.70214313 -9.05782983 21.11280588 -13.9375 21.0625 C-15.938125 21.041875 -17.93875 21.02125 -20 21 C-20 14.73 -20 8.46 -20 2 C-17.256875 1.67 -14.51375 1.34 -11.6875 1 C-10.39718872 0.84337891 -10.39718872 0.84337891 -9.08081055 0.68359375 C-8.05661011 0.56177734 -8.05661011 0.56177734 -7.01171875 0.4375 C-6.31522217 0.35371094 -5.61872559 0.26992187 -4.90112305 0.18359375 C-3 0 -3 0 0 0 Z " fill="#EFF0F1" transform="translate(1118,115)"/>
<path d="M0 0 C0.02888514 3.14581423 0.04675923 6.29159469 0.0625 9.4375 C0.07087891 10.33533203 0.07925781 11.23316406 0.08789062 12.15820312 C0.09272461 13.43920898 0.09272461 13.43920898 0.09765625 14.74609375 C0.10551147 15.93223267 0.10551147 15.93223267 0.11352539 17.14233398 C0 19 0 19 -1 20 C-2.41120902 20.22571184 -3.83176043 20.39388349 -5.25390625 20.53515625 C-6.0229126 20.61386963 -6.79191895 20.69258301 -7.58422852 20.77368164 C-8.56705811 20.8689917 -9.5498877 20.96430176 -10.5625 21.0625 C-13.676875 21.371875 -16.79125 21.68125 -20 22 C-19.67 15.4 -19.34 8.8 -19 2 C-5.875 -0.14285714 -5.875 -0.14285714 0 0 Z " fill="#EFF0F1" transform="translate(1327,112)"/>
<path d="M0 0 C0 6.27 0 12.54 0 19 C-6.72376365 20.34475273 -12.02244547 21 -19 21 C-19 14.4 -19 7.8 -19 1 C-17.535625 0.835 -16.07125 0.67 -14.5625 0.5 C-13.32693359 0.36078125 -13.32693359 0.36078125 -12.06640625 0.21875 C-8.05380714 -0.06749911 -4.02279631 0 0 0 Z " fill="#EFF0F1" transform="translate(862,29)"/>
<path d="M0 0 C0 6.6 0 13.2 0 20 C-9.405 20.99 -9.405 20.99 -19 22 C-19 15.4 -19 8.8 -19 2 C-16.23625 1.67 -13.4725 1.34 -10.625 1 C-9.75568848 0.89558594 -8.88637695 0.79117187 -7.99072266 0.68359375 C-2.22222222 0 -2.22222222 0 0 0 Z " fill="#EFF0F1" transform="translate(333,27)"/>
<path d="M0 0 C0 6.27 0 12.54 0 19 C-9.405 19.99 -9.405 19.99 -19 21 C-19 14.4 -19 7.8 -19 1 C-12.55133988 -0.28973202 -6.57786518 -0.06147538 0 0 Z " fill="#EFF0F1" transform="translate(596,0)"/>
<path d="M0 0 C0.66 0 1.32 0 2 0 C6 6.75 6 6.75 6 9 C6.66 9 7.32 9 8 9 C8 9.66 8 10.32 8 11 C-10.48 11 -28.96 11 -48 11 C-48 10.34 -48 9.68 -48 9 C-34.14 8.67 -20.28 8.34 -6 8 C-6 7.34 -6 6.68 -6 6 C-5.38125 5.938125 -4.7625 5.87625 -4.125 5.8125 C-1.72238859 5.171081 -1.72238859 5.171081 -0.75 2.4375 C-0.5025 1.633125 -0.255 0.82875 0 0 Z " fill="#D6D8DA" transform="translate(59,120)"/>
<path d="M0 0 C0.33 0 0.66 0 1 0 C1.14515951 5.67010017 1.28742819 11.34026364 1.42724609 17.01049805 C1.47499264 18.93141543 1.52347093 20.85231478 1.57275391 22.77319336 C1.88205709 34.8517984 2.07216522 46.91733636 2 59 C1.67 59 1.34 59 1 59 C0.67 54.38 0.34 49.76 0 45 C-0.33 47.64 -0.66 50.28 -1 53 C-1.33 53 -1.66 53 -2 53 C-2.70271401 42.74037539 -3.1784916 32.59120545 -2.625 22.3125 C-2.58189697 21.49354248 -2.53879395 20.67458496 -2.49438477 19.83081055 C-2.13776961 14.13776961 -2.13776961 14.13776961 -1 13 C-0.76518307 10.81707226 -0.58636677 8.62796826 -0.4375 6.4375 C-0.35371094 5.23996094 -0.26992188 4.04242188 -0.18359375 2.80859375 C-0.12300781 1.88175781 -0.06242187 0.95492187 0 0 Z " fill="#F6F6F7" transform="translate(34,50)"/>
<path d="M0 0 C1.77297142 2.65945714 2.93068972 4.995958 4.125 7.9375 C4.47820312 8.79214844 4.83140625 9.64679688 5.1953125 10.52734375 C6 13 6 13 6 17 C6.66 17 7.32 17 8 17 C8 17.66 8 18.32 8 19 C4.704854 18.75591511 3.80053202 17.79566695 1.4375 15.375 C-1.10095308 12.14709052 -2.54629993 8.82552651 -4 5 C-2.68 4.67 -1.36 4.34 0 4 C0 2.68 0 1.36 0 0 Z " fill="#DCDDDF" transform="translate(65,112)"/>
<path d="M0 0 C0.66 0 1.32 0 2 0 C2.50904657 1.87256417 3.00682455 3.74819341 3.5 5.625 C3.7784375 6.66914062 4.056875 7.71328125 4.34375 8.7890625 C4.9943876 11.97253932 5.18995997 14.76118259 5 18 C4.67 18.33 4.34 18.66 4 19 C3.84379445 20.41327947 3.74943827 21.8335459 3.68359375 23.25390625 C3.64169922 24.10791016 3.59980469 24.96191406 3.55664062 25.84179688 C3.51732422 26.73962891 3.47800781 27.63746094 3.4375 28.5625 C3.39431641 29.46419922 3.35113281 30.36589844 3.30664062 31.29492188 C3.20021858 33.52978485 3.09820012 35.76476308 3 38 C2.67 38 2.34 38 2 38 C1.96241577 36.53977417 1.96241577 36.53977417 1.92407227 35.05004883 C1.82962722 31.42508653 1.72949833 27.80029934 1.62768555 24.17553711 C1.58447661 22.60917264 1.54279209 21.04276533 1.50268555 19.47631836 C1.44464129 17.2197582 1.38104698 14.96341092 1.31640625 12.70703125 C1.29969376 12.01100296 1.28298126 11.31497467 1.26576233 10.59785461 C1.15591581 6.96127203 0.84278009 3.54207573 0 0 Z " fill="#D5D7D9" transform="translate(29,45)"/>
<path d="M0 0 C0.33 0 0.66 0 1 0 C1 4.29 1 8.58 1 13 C1.99 12.67 2.98 12.34 4 12 C3.34 15.63 2.68 19.26 2 23 C1.01 23 0.02 23 -1 23 C-0.67 15.41 -0.34 7.82 0 0 Z " fill="#BDBFC2" transform="translate(51,50)"/>
<path d="M0 0 C2.62386487 3.06117568 3 3.73173127 3 8 C3.66 8 4.32 8 5 8 C5 8.66 5 9.32 5 10 C2.66471585 9.82701599 1.30822418 9.29774631 -0.37890625 7.66796875 C-4 3.42788462 -4 3.42788462 -4 1 C-3.34 1 -2.68 1 -2 1 C-2 1.66 -2 2.32 -2 3 C-1.34 3 -0.68 3 0 3 C0 2.01 0 1.02 0 0 Z " fill="#C3C6C9" transform="translate(68,121)"/>
<path d="M0 0 C1.134375 0.020625 2.26875 0.04125 3.4375 0.0625 C2.4475 0.5575 2.4475 0.5575 1.4375 1.0625 C1.4375 2.7125 1.4375 4.3625 1.4375 6.0625 C-0.5425 6.3925 -2.5225 6.7225 -4.5625 7.0625 C-4.60504356 5.06295254 -4.60330783 3.06208364 -4.5625 1.0625 C-3.5625 0.0625 -3.5625 0.0625 0 0 Z M-3.5625 1.0625 C-3.5625 2.7125 -3.5625 4.3625 -3.5625 6.0625 C-2.9025 6.0625 -2.2425 6.0625 -1.5625 6.0625 C-1.5625 4.4125 -1.5625 2.7625 -1.5625 1.0625 C-2.2225 1.0625 -2.8825 1.0625 -3.5625 1.0625 Z " fill="#C8CACD" transform="translate(56.5625,30.9375)"/>
<path d="M0 0 C3.225 6.235 3.225 6.235 2.0625 10.1875 C1.711875 11.115625 1.36125 12.04375 1 13 C0.67 13 0.34 13 0 13 C-0.33 11.02 -0.66 9.04 -1 7 C-1.99 7.495 -1.99 7.495 -3 8 C-1.125 2.25 -1.125 2.25 0 0 Z " fill="#CED0D2" transform="translate(64,44)"/>
<path d="M0 0 C1.56073255 2.34109882 2.86373867 4.56333403 4.125 7.0625 C4.47820312 7.75472656 4.83140625 8.44695313 5.1953125 9.16015625 C6 11 6 11 6 13 C3 12 3 12 1.796875 10.0390625 C1.45140625 9.24242187 1.1059375 8.44578125 0.75 7.625 C0.39421875 6.83351563 0.0384375 6.04203125 -0.328125 5.2265625 C-1 3 -1 3 0 0 Z " fill="#C0C2C5" transform="translate(117,28)"/>
<path d="M0 0 C0.33 0 0.66 0 1 0 C1 1.98 1 3.96 1 6 C1.99 6.33 2.98 6.66 4 7 C1.59454362 8.20272819 0.05003047 8.10071472 -2.625 8.0625 C-3.85089844 8.04896484 -3.85089844 8.04896484 -5.1015625 8.03515625 C-6.04128906 8.01775391 -6.04128906 8.01775391 -7 8 C-7.33 7.34 -7.66 6.68 -8 6 C-5.36 6 -2.72 6 0 6 C-0.2784375 4.7934375 -0.2784375 4.7934375 -0.5625 3.5625 C-0.706875 2.716875 -0.85125 1.87125 -1 1 C-0.67 0.67 -0.34 0.34 0 0 Z " fill="#FAFAFB" transform="translate(46,32)"/>
<path d="M0 0 C0.99 0 1.98 0 3 0 C3 2 3 2 0.75 4.3125 C-0.61125 5.6428125 -0.61125 5.6428125 -2 7 C-3.35555293 8.64864545 -4.69631653 10.31003995 -6 12 C-5.56629155 7.2292071 -3.35665609 3.36635741 0 0 Z " fill="#C3C6C8" transform="translate(80,23)"/>
<path d="M0 0 C0 3.71928506 -1.34770822 5.69541645 -3 9 C-3.69907414 11.73572585 -3.69907414 11.73572585 -4 14 C-4.33 14 -4.66 14 -5 14 C-5.843259 11.11886508 -6.36695345 8.9354461 -5.24609375 6.078125 C-2.55936155 1.27968077 -2.55936155 1.27968077 0 0 Z " fill="#B0B3B7" transform="translate(100,47)"/>
<path d="M0 0 C-0.28109113 1.64767247 -0.57518526 3.29313145 -0.875 4.9375 C-1.03742188 5.85402344 -1.19984375 6.77054688 -1.3671875 7.71484375 C-1.57601562 8.46894531 -1.78484375 9.22304688 -2 10 C-2.99 10.495 -2.99 10.495 -4 11 C-5.34516765 4.64102564 -5.34516765 4.64102564 -3.6875 1.5625 C-2 0 -2 0 0 0 Z " fill="#F2F2F3" transform="translate(69,39)"/>
<path d="M0 0 C1.15837573 3.47512718 0.77265943 5.13670286 0.0625 8.6875 C-0.13214844 9.68136719 -0.32679687 10.67523438 -0.52734375 11.69921875 C-0.68332031 12.45847656 -0.83929688 13.21773437 -1 14 C-1.33 14 -1.66 14 -2 14 C-3.28571429 5.42857143 -3.28571429 5.42857143 -2 2 C-1.34 2 -0.68 2 0 2 C0 1.34 0 0.68 0 0 Z " fill="#B1B4B7" transform="translate(63,58)"/>
<path d="M0 0 C0.33 0.66 0.66 1.32 1 2 C0.00390625 3.9453125 0.00390625 3.9453125 -1.4375 6.125 C-1.91058594 6.84945312 -2.38367188 7.57390625 -2.87109375 8.3203125 C-3.24363281 8.87460938 -3.61617188 9.42890625 -4 10 C-4.96956854 6.94813661 -5.1635271 6.33484121 -3.6875 3.3125 C-2 1 -2 1 0 0 Z " fill="#AFB2B6" transform="translate(126,119)"/>
<path d="M0 0 C0.33 0 0.66 0 1 0 C1 1.65 1 3.3 1 5 C1.99 5 2.98 5 4 5 C4 3.35 4 1.7 4 0 C4.33 0 4.66 0 5 0 C5 1.65 5 3.3 5 5 C5.99 4.67 6.98 4.34 8 4 C8 4.66 8 5.32 8 6 C4.71303767 6.79953138 3.28976808 7.09658936 0 6 C0 4.02 0 2.04 0 0 Z " fill="#BDBFC2" transform="translate(38,32)"/>
<path d="M0 0 C0.66 0 1.32 0 2 0 C0.7874262 3.72433382 -0.50859979 7.37802806 -2 11 C-2.33 11 -2.66 11 -3 11 C-2.53199289 6.94393835 -2.12046792 3.53411321 0 0 Z " fill="#C0C3C6" transform="translate(70,38)"/>
<path d="M0 0 C0.33 0.66 0.66 1.32 1 2 C0.01 3.32 -0.98 4.64 -2 6 C-3.32 5.67 -4.64 5.34 -6 5 C-2.25 1.125 -2.25 1.125 0 0 Z " fill="#A1A5A9" transform="translate(57,119)"/>
<path d="M0 0 C0.33 0 0.66 0 1 0 C1.33 2.64 1.66 5.28 2 8 C1.01 8.33 0.02 8.66 -1 9 C-1.66 8.34 -2.32 7.68 -3 7 C-2.01 7 -1.02 7 0 7 C-0.2784375 5.824375 -0.2784375 5.824375 -0.5625 4.625 C-1 2 -1 2 0 0 Z " fill="#F9F9F9" transform="translate(60,31)"/>
<path d="M0 0 C3 1 3 1 3 1 Z " fill="#313942" transform="translate(124,135)"/>
<path d="M0 0 C3 1 3 1 3 1 Z " fill="#313942" transform="translate(51,135)"/>
<path d="M0 0 C3 1 3 1 3 1 Z " fill="#313942" transform="translate(23,135)"/>
<path d="M0 0 C3 1 3 1 3 1 Z " fill="#313942" transform="translate(17,135)"/>
</svg>
