<?xml version="1.0" encoding="UTF-8"?>
<svg version="1.1" xmlns="http://www.w3.org/2000/svg" width="1367" height="136">
<path d="M0 0 C2.52343004 1.02541665 5.04807962 2.0476805 7.57421875 3.06640625 C9.26379839 3.75082491 10.95025824 4.44301901 12.6328125 5.14453125 C18.64071341 7.60806274 24.70620133 9.4122005 31 11 C32.58901405 19.23842671 33.88628451 27.94376351 31 36 C25.24990105 42.56416073 16.91146921 46.07806221 9.0859375 49.60791016 C6.48337321 50.78194667 3.97680914 52.02642544 1.46875 53.38671875 C-12.30069467 60.80267514 -25.39805571 61.16624736 -40.71875 61.23828125 C-41.82814186 61.24439454 -41.82814186 61.24439454 -42.95994568 61.25063133 C-46.86831365 61.27134396 -50.77664796 61.28571372 -54.68505859 61.29516602 C-58.69274103 61.30625467 -62.6998721 61.34072503 -66.70735931 61.38033772 C-69.81826737 61.40660777 -72.92904513 61.41486653 -76.04005432 61.41844749 C-77.51668562 61.4232794 -78.99331246 61.43479491 -80.46983337 61.45348549 C-99.09695379 61.67480952 -99.09695379 61.67480952 -105.98937988 55.10322571 C-107.4399439 53.45967627 -108.75456849 51.80233177 -110 50 C-111.0828125 51.11375 -111.0828125 51.11375 -112.1875 52.25 C-121.02750211 60.89355761 -128.03611184 61.31373361 -140.01953125 61.3359375 C-141.90015511 61.3459227 -141.90015511 61.3459227 -143.81877136 61.35610962 C-146.46567029 61.3662135 -149.11215813 61.3717953 -151.7590332 61.37060547 C-154.45624603 61.3704429 -157.15277986 61.38433584 -159.84985352 61.41162109 C-163.76078829 61.44841977 -167.67094017 61.45808517 -171.58203125 61.4609375 C-173.3746917 61.48249405 -173.3746917 61.48249405 -175.2035675 61.50448608 C-183.12200587 61.46166496 -190.99627642 60.7999071 -196.99836731 55.10336304 C-198.44207912 53.45841755 -199.75646367 51.79958916 -201 50 C-201.680625 50.721875 -202.36125 51.44375 -203.0625 52.1875 C-209.60953521 58.69744153 -214.74667591 61.10074778 -224.07202148 61.16113281 C-225.27354355 61.17074036 -226.47506561 61.1803479 -227.71299744 61.19024658 C-229.00266922 61.19449646 -230.292341 61.19874634 -231.62109375 61.203125 C-232.61246181 61.20736607 -232.61246181 61.20736607 -233.6238575 61.21169281 C-237.1191154 61.22664024 -240.61433247 61.23589864 -244.10961914 61.24023438 C-247.70858992 61.24572278 -251.3071831 61.26977082 -254.90603542 61.29820633 C-257.68481016 61.31687852 -260.46349457 61.32204065 -263.24232674 61.32357025 C-265.21094779 61.32804511 -267.17952038 61.34666395 -269.14805603 61.36553955 C-270.35273026 61.36253845 -271.55740448 61.35953735 -272.79858398 61.35644531 C-273.85383774 61.36009094 -274.90909149 61.36373657 -275.99632263 61.36749268 C-279.56425243 60.93096508 -281.93261848 59.85273042 -285 58 C-287.30271657 55.01269202 -288.80884095 52.57347714 -290 49 C-290.61875 50.60875 -290.61875 50.60875 -291.25 52.25 C-292.66526734 55.53235712 -294.14680437 57.75202769 -297 60 C-302.50499743 61.73842024 -308.03529666 61.71443758 -313.4375 59.75 C-316.12111473 57.9172875 -317.09349003 57.08213391 -318 54 C-318.125 51.25 -318.125 51.25 -318 49 C-318.66 49 -319.32 49 -320 49 C-320.04125 49.886875 -320.0825 50.77375 -320.125 51.6875 C-321.33750222 56.27768697 -323.14748639 57.30324047 -327 60 C-331.4100813 61.4700271 -335.97188116 61.91036877 -340.25390625 59.98828125 C-340.83011719 59.66214844 -341.40632812 59.33601563 -342 59 C-342.07476563 59.71285156 -342.14953125 60.42570312 -342.2265625 61.16015625 C-343.16492021 67.99544817 -344.4166186 72.69681588 -350 77 C-359.70734404 82.96525267 -369.01120446 85.39382936 -380.3125 85.3125 C-381.14064209 85.30686035 -381.96878418 85.3012207 -382.82202148 85.29541016 C-393.56393263 85.08402525 -403.47389937 82.94656406 -412 76 C-413.2734375 73.80859375 -413.2734375 73.80859375 -414 72 C-414.66 72 -415.32 72 -416 72 C-416.81917642 70.27398621 -417.63006016 68.5440353 -418.4375 66.8125 C-418.88996094 65.84957031 -419.34242188 64.88664062 -419.80859375 63.89453125 C-425.30628405 50.53784761 -422.55509085 32.58552574 -419 19 C-410.56626517 20.29165308 -402.2921591 21.99383248 -394 24 C-394.88854489 31.48916409 -394.88854489 31.48916409 -395.515625 34.36328125 C-396.08021179 37.43663676 -396.24315775 40.37594907 -396.3125 43.5 C-396.34988281 44.6034375 -396.38726563 45.706875 -396.42578125 46.84375 C-395.90566353 50.69930155 -394.72545487 52.27454513 -392 55 C-383.70433978 58.48417729 -375.4240186 57.45908151 -367.03125 54.94921875 C-364.66286733 54.05651364 -364.66286733 54.05651364 -363 51 C-362.08152399 43.9583506 -364.78195437 37.6022094 -367 31 C-367.54586437 29.36207627 -368.09142844 27.72405243 -368.63671875 26.0859375 C-369.09105235 24.72392715 -369.54544636 23.36193694 -370 22 C-366.40400558 20.12965549 -362.79702853 18.28157151 -359.1875 16.4375 C-358.16333984 15.90447266 -357.13917969 15.37144531 -356.08398438 14.82226562 C-355.10107422 14.32275391 -354.11816406 13.82324219 -353.10546875 13.30859375 C-352.19949951 12.84251709 -351.29353027 12.37644043 -350.36010742 11.89624023 C-348 11 -348 11 -345 12 C-343.84241236 14.60678133 -342.85735267 17.12351891 -341.9375 19.8125 C-341.18589633 21.94235926 -340.42984785 24.06957051 -339.65185547 26.18994141 C-339.14555447 27.59582741 -338.68934447 29.01979589 -338.25390625 30.44921875 C-336.58805565 32.86941583 -336.58805565 32.86941583 -330 33 C-330 27.39 -330 21.78 -330 16 C-323.4 16 -316.8 16 -310 16 C-309.505 23.92 -309.505 23.92 -309 32 C-307.35 32.33 -305.7 32.66 -304 33 C-304 27.39 -304 21.78 -304 16 C-296.74 15.67 -289.48 15.34 -282 15 C-281.77213542 18.28776042 -281.54427083 21.57552083 -281.31640625 24.86328125 C-281.1132629 28.02590958 -281.1132629 28.02590958 -280 31 C-277.26635853 32.36682074 -275.04962521 32.16265463 -271.98974609 32.20532227 C-270.72858978 32.22526749 -269.46743347 32.24521271 -268.1680603 32.26576233 C-266.78652063 32.28274665 -265.40497966 32.29962546 -264.0234375 32.31640625 C-262.61381418 32.3369756 -261.20419703 32.35797207 -259.79458618 32.37937927 C-256.08252965 32.43460195 -252.37041743 32.48401031 -248.65826416 32.53222656 C-244.87108397 32.58244018 -241.08398474 32.63812697 -237.296875 32.69335938 C-229.86464995 32.80094336 -222.43235715 32.90188203 -215 33 C-214.67 27.06 -214.34 21.12 -214 15 C-205.75 15 -197.5 15 -189 15 C-188.67 20.94 -188.34 26.88 -188 33 C-166.88 33 -145.76 33 -124 33 C-123.67 27.06 -123.34 21.12 -123 15 C-114.42 15 -105.84 15 -97 15 C-97 20.94 -97 26.88 -97 33 C-86.94894252 32.98210807 -76.89855162 32.94273257 -66.84775352 32.86790943 C-62.17822518 32.83395601 -57.50901297 32.80857964 -52.83935547 32.80444336 C-23.56163279 32.90810905 -23.56163279 32.90810905 5 27 C3.93064209 26.79004395 2.86128418 26.58008789 1.75952148 26.36376953 C0.51887939 26.11997559 -0.7217627 25.87618164 -2 25.625 C-2.75015381 25.47788574 -3.50030762 25.33077148 -4.27319336 25.17919922 C-7.7447348 24.48732647 -11.15952084 23.72227976 -14.5625 22.75 C-18.25486737 21.94439257 -20.44669093 21.67783849 -24 23 C-25.93469849 25.95071844 -25.93469849 25.95071844 -27 29 C-33.6772895 28.39297368 -39.70127996 26.22368606 -46 24 C-44.15440249 13.72779279 -40.88833851 5.14985575 -33 -2 C-22.31519715 -8.70419002 -10.67654655 -4.39696235 0 0 Z " fill="#000000" transform="translate(1326,46)"/>
<path d="M0 0 C8.6367341 5.71188266 13.41114261 14.24099923 15.54125977 24.11352539 C18.02981113 36.76280102 19.17835102 51.22141054 12.84375 62.98046875 C7.91389713 69.81619257 1.83584872 74.28712799 -6.5411377 76.02700806 C-10.18900323 76.5088242 -13.77876476 76.62719688 -17.45117188 76.64990234 C-18.56456688 76.66216858 -18.56456688 76.66216858 -19.70045471 76.67468262 C-22.1388369 76.69934886 -24.5771619 76.71599834 -27.015625 76.73046875 C-27.85214096 76.73579243 -28.68865692 76.7411161 -29.55052185 76.7466011 C-33.97296224 76.77324286 -38.3953752 76.79265168 -42.81787109 76.80712891 C-46.47079351 76.82049554 -50.12316095 76.8484105 -53.77587891 76.88916016 C-58.19840924 76.93848357 -62.62043453 76.96324789 -67.04322815 76.97035599 C-68.72414172 76.97706185 -70.40504428 76.99226675 -72.08580017 77.0162468 C-74.43865712 77.04791905 -76.78956339 77.04793394 -79.14257812 77.04052734 C-79.83158707 77.05693268 -80.52059601 77.07333801 -81.23048401 77.09024048 C-86.75439773 77.01927071 -89.00934444 75.15733144 -92.796875 71.45703125 C-92.94382812 72.21886719 -93.09078125 72.98070313 -93.2421875 73.765625 C-95.61425133 84.68529814 -99.46032034 91.66380986 -108.93359375 97.81640625 C-122.26830357 105.45703125 -122.26830357 105.45703125 -128.796875 105.45703125 C-129.33957031 104.28785156 -129.88226563 103.11867188 -130.44140625 101.9140625 C-131.16391994 100.36581888 -131.88658413 98.81764549 -132.609375 97.26953125 C-132.96580078 96.50060547 -133.32222656 95.73167969 -133.68945312 94.93945312 C-135.20705205 91.69541138 -136.69331694 88.61957527 -138.62109375 85.59375 C-139.00910156 84.88863281 -139.39710938 84.18351562 -139.796875 83.45703125 C-139.466875 82.46703125 -139.136875 81.47703125 -138.796875 80.45703125 C-136.13671875 79.24609375 -136.13671875 79.24609375 -132.734375 78.08203125 C-122.96393908 74.56664527 -122.96393908 74.56664527 -115.796875 67.45703125 C-114.6705181 58.09255235 -116.38807782 49.78693459 -118.921875 40.85546875 C-119.796875 37.45703125 -119.796875 37.45703125 -119.796875 33.45703125 C-111.876875 30.81703125 -103.956875 28.17703125 -95.796875 25.45703125 C-92.421875 35.33203125 -92.421875 35.33203125 -91.36962891 38.44091797 C-90.95076416 39.65158936 -90.95076416 39.65158936 -90.5234375 40.88671875 C-90.24064941 41.71413574 -89.95786133 42.54155273 -89.66650391 43.39404297 C-88.87760772 45.62757503 -88.87760772 45.62757503 -86.796875 47.45703125 C-84.20902034 47.67438293 -81.72489458 47.76841946 -79.13427734 47.77587891 C-77.94878044 47.79094734 -77.94878044 47.79094734 -76.73933411 47.80632019 C-74.12050115 47.83727259 -71.50177095 47.85422058 -68.8828125 47.87109375 C-67.06962187 47.88979572 -65.25644002 47.9093684 -63.44326782 47.92977905 C-58.66590547 47.9812089 -53.88851487 48.02077638 -49.11102295 48.05792236 C-44.23800608 48.09789416 -39.36510783 48.14901754 -34.4921875 48.19921875 C-24.92716653 48.29610644 -15.36207875 48.38046996 -5.796875 48.45703125 C-5.796875 47.46703125 -5.796875 46.47703125 -5.796875 45.45703125 C-6.786875 45.95203125 -6.786875 45.95203125 -7.796875 46.45703125 C-15.3397804 47.07015967 -23.10115096 46.7066024 -29.671875 42.70703125 C-35.21663632 36.8361075 -35.31889019 31.0139217 -35.14453125 23.2890625 C-34.44299731 15.55642431 -31.98755432 8.57310562 -26.5546875 2.89453125 C-18.57967273 -3.6272586 -9.15366301 -4.52882278 0 0 Z M-22.796875 23.45703125 C-22.796875 24.44703125 -22.796875 25.43703125 -22.796875 26.45703125 C-19.94527109 27.27137268 -17.43061369 27.57584367 -14.46875 27.5546875 C-13.66953125 27.55146484 -12.8703125 27.54824219 -12.046875 27.54492188 C-11.221875 27.53654297 -10.396875 27.52816406 -9.546875 27.51953125 C-8.70640625 27.51501953 -7.8659375 27.51050781 -7 27.50585938 C-4.93226099 27.49411086 -2.86455876 27.47617647 -0.796875 27.45703125 C-4.42251328 22.71210379 -4.42251328 22.71210379 -9.796875 20.45703125 C-15.06738476 19.977894 -18.24032246 20.78978098 -22.796875 23.45703125 Z " fill="#000000" transform="translate(598.796875,30.54296875)"/>
<path d="M0 0 C5.43870716 8.15806074 4.90113872 21.42436398 3.60546875 30.87890625 C1.8703253 38.92773297 -2.2338764 44.57617244 -8.9140625 49.375 C-18.13675767 54.53667302 -29.33105739 54.30859451 -39.5859375 54.30078125 C-40.84588531 54.30506638 -42.10583313 54.3093515 -43.40396118 54.31376648 C-46.71952536 54.32092611 -50.03490464 54.31791927 -53.35046387 54.31219482 C-56.05791337 54.31260294 -58.76511757 54.3315255 -61.47249413 54.3500185 C-64.71863791 54.36830193 -67.9647515 54.3645715 -71.2109375 54.36328125 C-72.41930267 54.372491 -73.62766785 54.38170074 -74.87265015 54.39118958 C-75.9979715 54.38496078 -77.12329285 54.37873199 -78.28271484 54.37231445 C-79.76183853 54.37325859 -79.76183853 54.37325859 -81.27084351 54.3742218 C-84.49363056 53.9323134 -86.38227497 52.90139093 -89 51 C-89.33 50.34 -89.66 49.68 -90 49 C-90.17015625 49.79664063 -90.3403125 50.59328125 -90.515625 51.4140625 C-92.95958676 62.09989531 -97.07329226 68.55359897 -106 75 C-108.71606613 76.61398472 -111.49171972 78.07813809 -114.3125 79.5 C-115.00633789 79.85046387 -115.70017578 80.20092773 -116.41503906 80.56201172 C-119.9139489 82.24859162 -122.05018633 83 -126 83 C-131.95703125 71.0859375 -131.95703125 71.0859375 -133.00244141 68.98339844 C-133.89995164 67.1989214 -134.8289335 65.43035653 -135.76171875 63.6640625 C-137 61 -137 61 -137 58 C-136.38253906 57.84144531 -135.76507812 57.68289062 -135.12890625 57.51953125 C-127.25352405 55.34990541 -119.35917751 52.47567282 -114 46 C-110.15442468 38.30884936 -114.02539044 27.65652972 -116.02734375 19.8203125 C-116.77067659 16.90071603 -117.40915357 13.95423217 -118 11 C-109.75 8.36 -101.5 5.72 -93 3 C-91.845 6.25875 -90.69 9.5175 -89.5 12.875 C-89.13455078 13.90093262 -88.76910156 14.92686523 -88.39257812 15.98388672 C-88.10833984 16.79100098 -87.82410156 17.59811523 -87.53125 18.4296875 C-87.23798828 19.25710449 -86.94472656 20.08452148 -86.64257812 20.93701172 C-86 23 -86 23 -86 25 C-63.89 25 -41.78 25 -19 25 C-20.32 20.05 -21.64 15.1 -23 10 C-23 8.35 -23 6.7 -23 5 C-15.41 3.35 -7.82 1.7 0 0 Z " fill="#000000" transform="translate(874,53)"/>
<path d="M0 0 C6.69119688 4.5758185 11.82432286 11.8690482 13.4609375 19.86328125 C14.70085319 30.1270278 13.721894 38.34235276 9.0546875 47.50390625 C4.96027926 52.26227258 1.4377932 53.9849467 -4.87890625 54.46875 C-13.38199028 54.6351951 -21.77364664 53.84403439 -30.2578125 53.19140625 C-30.2578125 63.09140625 -30.2578125 72.99140625 -30.2578125 83.19140625 C-39.1678125 83.19140625 -48.0778125 83.19140625 -57.2578125 83.19140625 C-57.30395312 77.94419259 -57.34370914 72.69769501 -57.36767578 67.45043945 C-57.37767661 65.66883954 -57.39128166 63.88725581 -57.40869141 62.10571289 C-57.43320207 59.53137192 -57.44435498 56.95724968 -57.453125 54.3828125 C-57.46344757 53.59806046 -57.47377014 52.81330841 -57.48440552 52.004776 C-57.4863253 42.34488667 -55.55609354 34.67436396 -49.2578125 27.19140625 C-45.34650713 23.93198511 -42.31592386 22.67313114 -37.2578125 22.19140625 C-37.1753125 21.36640625 -37.0928125 20.54140625 -37.0078125 19.69140625 C-35.46155618 12.47554343 -31.66712173 5.29977064 -25.5234375 0.96875 C-17.47060059 -3.8319797 -8.28407621 -4.77415637 0 0 Z M-21.2578125 26.19140625 C-20.46478848 28.34493616 -20.46478848 28.34493616 -18.47265625 28.859375 C-12.59881536 30.19937644 -6.87233744 30.99866872 -1.2578125 28.19140625 C-2.2463472 25.49540252 -2.91758886 24.38581976 -5.4453125 22.94140625 C-12.07151242 21.1744196 -15.8543252 21.97405031 -21.2578125 26.19140625 Z " fill="#000000" transform="translate(735.2578125,52.80859375)"/>
<path d="M0 0 C2.92511212 1.47351154 5.55048468 3.36047937 8.2734375 5.17578125 C8.2734375 6.16578125 8.2734375 7.15578125 8.2734375 8.17578125 C6.943125 8.79453125 6.943125 8.79453125 5.5859375 9.42578125 C-0.62264031 12.70578462 -3.73662404 16.25704989 -6.9765625 22.30078125 C-7.3271875 22.93371094 -7.6778125 23.56664063 -8.0390625 24.21875 C-9.3084187 26.51823758 -10.55185984 28.82637592 -11.7265625 31.17578125 C-12.3865625 31.17578125 -13.0465625 31.17578125 -13.7265625 31.17578125 C-13.9121875 32.53703125 -13.9121875 32.53703125 -14.1015625 33.92578125 C-14.64765927 36.76548448 -15.29920053 38.70168716 -16.7265625 41.17578125 C-18.0465625 41.17578125 -19.3665625 41.17578125 -20.7265625 41.17578125 C-20.7265625 42.16578125 -20.7265625 43.15578125 -20.7265625 44.17578125 C-21.3865625 44.17578125 -22.0465625 44.17578125 -22.7265625 44.17578125 C-22.83613281 45.26375 -22.94570313 46.35171875 -23.05859375 47.47265625 C-23.98988923 56.25387139 -25.26660073 64.66431354 -27.7265625 73.17578125 C-28.3865625 73.17578125 -29.0465625 73.17578125 -29.7265625 73.17578125 C-29.7562915 72.1245105 -29.7562915 72.1245105 -29.78662109 71.05200195 C-29.88212416 67.86372963 -29.99170121 64.67608978 -30.1015625 61.48828125 C-30.1325 60.38548828 -30.1634375 59.28269531 -30.1953125 58.14648438 C-30.25332031 56.54643555 -30.25332031 56.54643555 -30.3125 54.9140625 C-30.3439209 53.93477783 -30.3753418 52.95549316 -30.40771484 51.9465332 C-30.74171942 49.04406924 -31.60521251 46.85662275 -32.7265625 44.17578125 C-32.7265625 43.18578125 -32.7265625 42.19578125 -32.7265625 41.17578125 C-35.3665625 41.17578125 -38.0065625 41.17578125 -40.7265625 41.17578125 C-40.8503125 41.75328125 -40.9740625 42.33078125 -41.1015625 42.92578125 C-41.7265625 45.17578125 -41.7265625 45.17578125 -42.75143433 46.94378662 C-43.99991883 49.80147322 -43.96670656 52.02149578 -43.95361328 55.13769531 C-43.95346222 56.33863831 -43.95331116 57.5395813 -43.95315552 58.7769165 C-43.94283295 60.06869812 -43.93251038 61.36047974 -43.921875 62.69140625 C-43.91814284 64.03090198 -43.91529682 65.37040046 -43.91329956 66.7098999 C-43.90567907 70.2280639 -43.88604437 73.74606165 -43.8638916 77.26416016 C-43.84339893 80.85707348 -43.83429054 84.45001378 -43.82421875 88.04296875 C-43.80279682 95.08731392 -43.7676277 102.13151921 -43.7265625 109.17578125 C-39.7665625 109.17578125 -35.8065625 109.17578125 -31.7265625 109.17578125 C-31.67757812 110.07941406 -31.62859375 110.98304687 -31.578125 111.9140625 C-31.50335938 113.09355469 -31.42859375 114.27304688 -31.3515625 115.48828125 C-31.28195313 116.66003906 -31.21234375 117.83179687 -31.140625 119.0390625 C-30.94042503 122.33278012 -30.94042503 122.33278012 -28.7265625 125.17578125 C-26.27431556 125.06964289 -26.27431556 125.06964289 -23.7265625 124.17578125 C-22.35189625 121.69942113 -22.35189625 121.69942113 -21.7265625 119.17578125 C-21.0665625 119.17578125 -20.4065625 119.17578125 -19.7265625 119.17578125 C-18.21875 121.29296875 -18.21875 121.29296875 -16.6015625 124.05078125 C-16.06273437 124.95570312 -15.52390625 125.860625 -14.96875 126.79296875 C-13.7265625 129.17578125 -13.7265625 129.17578125 -13.7265625 131.17578125 C-32.2065625 130.84578125 -50.6865625 130.51578125 -69.7265625 130.17578125 C-69.7265625 126.87578125 -69.7265625 123.57578125 -69.7265625 120.17578125 C-68.7365625 120.17578125 -67.7465625 120.17578125 -66.7265625 120.17578125 C-66.7265625 119.18578125 -66.7265625 118.19578125 -66.7265625 117.17578125 C-65.4065625 117.17578125 -64.0865625 117.17578125 -62.7265625 117.17578125 C-62.7265625 116.18578125 -62.7265625 115.19578125 -62.7265625 114.17578125 C-61.4065625 114.17578125 -60.0865625 114.17578125 -58.7265625 114.17578125 C-58.7265625 113.18578125 -58.7265625 112.19578125 -58.7265625 111.17578125 C-57.0765625 111.17578125 -55.4265625 111.17578125 -53.7265625 111.17578125 C-53.7265625 110.51578125 -53.7265625 109.85578125 -53.7265625 109.17578125 C-52.4065625 109.17578125 -51.0865625 109.17578125 -49.7265625 109.17578125 C-49.81104571 101.43893888 -49.90595985 93.70230046 -50.01408958 85.96575642 C-50.06397634 82.37312473 -50.11030673 78.78052136 -50.1484375 75.18774414 C-50.18538704 71.71870921 -50.2317726 68.24991566 -50.28462601 64.78108788 C-50.31210147 62.81754329 -50.32987405 60.85387068 -50.34750366 58.89021301 C-50.36737335 57.68934555 -50.38724304 56.48847809 -50.40771484 55.2512207 C-50.42103851 54.19643021 -50.43436218 53.14163971 -50.4480896 52.05488586 C-50.73650295 49.07300791 -51.56317007 46.91523262 -52.7265625 44.17578125 C-52.7265625 43.18578125 -52.7265625 42.19578125 -52.7265625 41.17578125 C-53.7165625 41.17578125 -54.7065625 41.17578125 -55.7265625 41.17578125 C-55.84310686 37.61355815 -55.9139264 34.05182783 -55.9765625 30.48828125 C-56.01007812 29.48087891 -56.04359375 28.47347656 -56.078125 27.43554688 C-56.17728899 19.923875 -56.17728899 19.923875 -53.84375 16.05078125 C-48.64505727 11.44677293 -43.34128108 11.9445872 -36.7265625 12.17578125 C-36.448125 11.03109375 -36.448125 11.03109375 -36.1640625 9.86328125 C-34.45791124 6.6735202 -32.92238938 6.14040563 -29.6015625 4.9296875 C-26.7111018 3.76748143 -24.29109144 1.92432371 -21.7265625 0.17578125 C-15.40311944 -1.9320331 -6.37007634 -1.9256248 0 0 Z M-51.7265625 31.17578125 C-51.7265625 32.82578125 -51.7265625 34.47578125 -51.7265625 36.17578125 C-51.0665625 36.17578125 -50.4065625 36.17578125 -49.7265625 36.17578125 C-49.7265625 34.52578125 -49.7265625 32.87578125 -49.7265625 31.17578125 C-50.3865625 31.17578125 -51.0465625 31.17578125 -51.7265625 31.17578125 Z M-46.7265625 31.17578125 C-46.7265625 32.82578125 -46.7265625 34.47578125 -46.7265625 36.17578125 C-46.0665625 36.17578125 -45.4065625 36.17578125 -44.7265625 36.17578125 C-44.7265625 34.52578125 -44.7265625 32.87578125 -44.7265625 31.17578125 C-45.3865625 31.17578125 -46.0465625 31.17578125 -46.7265625 31.17578125 Z M-41.7265625 31.17578125 C-41.7265625 32.82578125 -41.7265625 34.47578125 -41.7265625 36.17578125 C-41.0665625 35.84578125 -40.4065625 35.51578125 -39.7265625 35.17578125 C-39.7265625 33.85578125 -39.7265625 32.53578125 -39.7265625 31.17578125 C-40.3865625 31.17578125 -41.0465625 31.17578125 -41.7265625 31.17578125 Z M-37.7265625 31.17578125 C-37.7265625 32.82578125 -37.7265625 34.47578125 -37.7265625 36.17578125 C-36.7365625 35.84578125 -35.7465625 35.51578125 -34.7265625 35.17578125 C-35.0565625 33.85578125 -35.3865625 32.53578125 -35.7265625 31.17578125 C-36.3865625 31.17578125 -37.0465625 31.17578125 -37.7265625 31.17578125 Z M-32.7265625 31.17578125 C-32.7265625 32.82578125 -32.7265625 34.47578125 -32.7265625 36.17578125 C-32.0665625 36.17578125 -31.4065625 36.17578125 -30.7265625 36.17578125 C-30.7265625 34.52578125 -30.7265625 32.87578125 -30.7265625 31.17578125 C-31.3865625 31.17578125 -32.0465625 31.17578125 -32.7265625 31.17578125 Z M-27.7265625 31.17578125 C-27.7265625 32.82578125 -27.7265625 34.47578125 -27.7265625 36.17578125 C-27.0665625 36.17578125 -26.4065625 36.17578125 -25.7265625 36.17578125 C-25.7265625 34.52578125 -25.7265625 32.87578125 -25.7265625 31.17578125 C-26.3865625 31.17578125 -27.0465625 31.17578125 -27.7265625 31.17578125 Z M-22.7265625 31.17578125 C-22.7265625 32.82578125 -22.7265625 34.47578125 -22.7265625 36.17578125 C-22.0665625 35.84578125 -21.4065625 35.51578125 -20.7265625 35.17578125 C-21.0565625 33.85578125 -21.3865625 32.53578125 -21.7265625 31.17578125 C-22.0565625 31.17578125 -22.3865625 31.17578125 -22.7265625 31.17578125 Z M-18.7265625 31.17578125 C-18.7265625 32.82578125 -18.7265625 34.47578125 -18.7265625 36.17578125 C-18.0665625 36.17578125 -17.4065625 36.17578125 -16.7265625 36.17578125 C-16.7265625 34.52578125 -16.7265625 32.87578125 -16.7265625 31.17578125 C-17.3865625 31.17578125 -18.0465625 31.17578125 -18.7265625 31.17578125 Z " fill="#313942" transform="translate(80.7265625,0.82421875)"/>
<path d="M0 0 C9.53121205 6.12360645 14.45115583 17.44911296 19.17504883 27.38305664 C20.11941008 29.36327856 21.08661998 31.33107196 22.05664062 33.29882812 C28.4113095 46.38471928 32.83188268 59.66226423 34.4375 74.1875 C34.54835938 75.06664063 34.65921875 75.94578125 34.7734375 76.8515625 C35.52756008 83.92400943 35.570859 91.01927028 35.625 98.125 C35.63805176 99.13288574 35.65110352 100.14077148 35.66455078 101.17919922 C35.66624268 102.61996826 35.66624268 102.61996826 35.66796875 104.08984375 C35.67207764 104.95085693 35.67618652 105.81187012 35.68041992 106.69897461 C35.40793817 109.49033792 34.58751445 111.64219924 33.4375 114.1875 C31.6875 114.125 31.6875 114.125 29.4375 113.1875 C27.84248463 110.94585678 26.69206982 108.65183357 25.4375 106.1875 C25.07398438 106.93515625 24.71046875 107.6828125 24.3359375 108.453125 C21.39330645 114.21766378 19.3060202 118.2532399 13.4375 121.1875 C14.07279923 118.5150919 14.82915481 115.94162046 15.7421875 113.3515625 C25.18211308 86.13456671 28.19867397 59.49499595 15.765625 32.56640625 C12.51879759 26.35289804 8.90019485 20.59831317 4.4375 15.1875 C4.685 16.2084375 4.685 16.2084375 4.9375 17.25 C5.76389808 22.1050887 6.25676274 25.70652505 3.8125 30.125 C2.53713233 31.76955305 1.25607851 33.41013211 -0.05859375 35.0234375 C-3.8714003 39.83460986 -5.99544815 44.24919825 -7.5625 50.1875 C-8.2225 50.1875 -8.8825 50.1875 -9.5625 50.1875 C-9.80484375 49.45144531 -10.0471875 48.71539062 -10.296875 47.95703125 C-12.54287038 41.41772931 -14.75326677 36.91646943 -19.75 32.0625 C-22.87634752 28.82834739 -22.6753947 25.78354928 -22.625 21.5 C-22.61597656 20.50613281 -22.60695313 19.51226563 -22.59765625 18.48828125 C-22.58605469 17.72902344 -22.57445313 16.96976563 -22.5625 16.1875 C-37.64413743 34.67719576 -43.67685395 57.5348667 -41.5625 81.1875 C-40.12708213 92.89666418 -36.94450879 103.89059244 -32.734375 114.87890625 C-31.5625 118.1875 -31.5625 118.1875 -31.5625 121.1875 C-36.84655681 117.26898596 -40.29662957 113.43623583 -42.5625 107.1875 C-42.5625 106.5275 -42.5625 105.8675 -42.5625 105.1875 C-43.2225 105.1875 -43.8825 105.1875 -44.5625 105.1875 C-44.68625 105.93 -44.81 106.6725 -44.9375 107.4375 C-45.51736701 109.98891485 -46.29958739 111.9142573 -47.5625 114.1875 C-49.2125 113.8575 -50.8625 113.5275 -52.5625 113.1875 C-56.0045853 77.1851483 -48.35192951 34.81370398 -24.78515625 6.015625 C-17.75020778 -1.434955 -9.65004329 -4.57545156 0 0 Z " fill="#303842" transform="translate(103.5625,10.8125)"/>
<path d="M0 0 C11.39483375 9.49569479 21.20356826 19.61070478 26 34 C27.16448519 51.16183906 27.16448519 51.16183906 22 58 C21.41476562 58.82628906 20.82953125 59.65257812 20.2265625 60.50390625 C17.71980728 63.31411079 15.50354221 64.61660809 12.125 66.25 C11.11695313 66.75015625 10.10890625 67.2503125 9.0703125 67.765625 C-2.01447674 72.22210515 -15.59705996 70.39601654 -27 68 C-27.66 67.67 -28.32 67.34 -29 67 C-28.35343144 58.10968231 -26.12977433 49.62806252 -24 41 C-23.25492188 41.16371094 -22.50984375 41.32742187 -21.7421875 41.49609375 C-16.52737426 42.1982972 -11.37979269 42.10456423 -6.125 42.0625 C-5.05507812 42.05798828 -3.98515625 42.05347656 -2.8828125 42.04882812 C-0.25515014 42.03709749 2.37239538 42.02068228 5 42 C1.8999204 38.87092268 -1.20574924 35.74745275 -4.3125 32.625 C-5.19357422 31.73554687 -6.07464844 30.84609375 -6.98242188 29.9296875 C-7.82998047 29.07890625 -8.67753906 28.228125 -9.55078125 27.3515625 C-10.33106689 26.56604004 -11.11135254 25.78051758 -11.9152832 24.97119141 C-14.03877052 22.85238378 -14.03877052 22.85238378 -17 21 C-17 20.34 -17 19.68 -17 19 C-15.33792703 17.66094474 -13.67031212 16.3287637 -12 15 C-10.41220071 13.20647257 -8.87075535 11.3709792 -7.375 9.5 C-6.61960938 8.5615625 -5.86421875 7.623125 -5.0859375 6.65625 C-3.35986442 4.45825431 -1.66314054 2.2457694 0 0 Z " fill="#000000" transform="translate(242,37)"/>
<path d="M0 0 C7.11246094 7.11246094 8.37551493 26.4370493 8.625 36.3125 C8.19286718 45.325556 5.99115752 55.01031623 0 62 C-0.66 62 -1.32 62 -2 62 C-2.23074219 62.58007812 -2.46148437 63.16015625 -2.69921875 63.7578125 C-7.43556245 71.9219605 -19.48978592 76.91811177 -28 80 C-29.32 80 -30.64 80 -32 80 C-32.54269531 78.83082031 -33.08539063 77.66164063 -33.64453125 76.45703125 C-34.36704494 74.90878763 -35.08970913 73.36061424 -35.8125 71.8125 C-36.16892578 71.04357422 -36.52535156 70.27464844 -36.89257812 69.48242188 C-38.41017705 66.23838013 -39.89644194 63.16254402 -41.82421875 60.13671875 C-42.21222656 59.43160156 -42.60023438 58.72648437 -43 58 C-42.67 57.01 -42.34 56.02 -42 55 C-39.8125 54.0078125 -39.8125 54.0078125 -37 53.125 C-26.50183339 49.64270065 -26.50183339 49.64270065 -19 42 C-17.61396621 32.75977476 -19.62076507 24.22065545 -22.125 15.3984375 C-23 12 -23 12 -23 8 C-15.41 5.36 -7.82 2.72 0 0 Z " fill="#000000" transform="translate(335,56)"/>
<path d="M0 0 C0.67016602 1.83837891 0.67016602 1.83837891 1.25390625 4.2265625 C1.57584961 5.52787109 1.57584961 5.52787109 1.90429688 6.85546875 C2.23010742 8.22638672 2.23010742 8.22638672 2.5625 9.625 C2.78357422 10.51574219 3.00464844 11.40648438 3.23242188 12.32421875 C7.03600992 27.92927182 8.12600616 43.09428833 0.46484375 57.6171875 C-5.99144481 68.1194169 -18.6391607 75.00437256 -30 79 C-31.32 79 -32.64 79 -34 79 C-34.54269531 77.83082031 -35.08539063 76.66164063 -35.64453125 75.45703125 C-36.36704494 73.90878763 -37.08970913 72.36061424 -37.8125 70.8125 C-38.16892578 70.04357422 -38.52535156 69.27464844 -38.89257812 68.48242188 C-40.39993281 65.26027837 -41.89523274 62.17027583 -43.76171875 59.13671875 C-45 57 -45 57 -45 54 C-44.40574219 53.85304687 -43.81148438 53.70609375 -43.19921875 53.5546875 C-35.75666813 51.54068469 -27.89446185 48.7556837 -22.24609375 43.30859375 C-19.04539791 37.37877794 -19.97089651 31.176287 -21.3125 24.875 C-21.44333984 24.19824219 -21.57417969 23.52148438 -21.70898438 22.82421875 C-22.33081237 19.71808278 -23.08275134 16.75730173 -24.10546875 13.7578125 C-25 11 -25 11 -25 7 C-21.21261434 5.63364215 -17.41948537 4.28400281 -13.625 2.9375 C-12.54476562 2.54755859 -11.46453125 2.15761719 -10.3515625 1.75585938 C-9.3203125 1.39169922 -8.2890625 1.02753906 -7.2265625 0.65234375 C-6.27346191 0.31195068 -5.32036133 -0.02844238 -4.33837891 -0.37915039 C-2 -1 -2 -1 0 0 Z " fill="#000000" transform="translate(429,57)"/>
<path d="M0 0 C0.02349079 7.21683904 0.04109755 14.43366943 0.05181217 21.6505394 C0.05696263 25.00402469 0.06448444 28.3574633 0.07543945 31.7109375 C0.15718783 57.40878079 0.15718783 57.40878079 -0.44140625 69.578125 C-0.48039536 70.37377869 -0.51938446 71.16943237 -0.55955505 71.98919678 C-0.77644651 75.78800887 -1.24966715 79.24833577 -2 83 C-9.92 83 -17.84 83 -26 83 C-26 55.94 -26 28.88 -26 1 C-8 0 -8 0 0 0 Z " fill="#000000" transform="translate(469,24)"/>
<path d="M0 0 C0.02349079 7.21683904 0.04109755 14.43366943 0.05181217 21.6505394 C0.05696263 25.00402469 0.06448444 28.3574633 0.07543945 31.7109375 C0.15718783 57.40878079 0.15718783 57.40878079 -0.44140625 69.578125 C-0.48039536 70.37377869 -0.51938446 71.16943237 -0.55955505 71.98919678 C-0.77644651 75.78800887 -1.24966715 79.24833577 -2 83 C-9.92 83 -17.84 83 -26 83 C-26 55.94 -26 28.88 -26 1 C-8 0 -8 0 0 0 Z " fill="#000000" transform="translate(302,24)"/>
<path d="M0 0 C0.02332848 8.75468821 0.0410184 17.50936546 0.05181217 26.26407814 C0.05699664 30.33068578 0.06401209 34.39727192 0.07543945 38.46386719 C0.08642802 42.3996336 0.0923101 46.33537954 0.09487724 50.27116013 C0.09670308 51.76119687 0.10026724 53.25123268 0.10573006 54.74126053 C0.13904519 64.21849731 -0.21864156 73.55340346 -1 83 C-9.25 83 -17.5 83 -26 83 C-26 55.94 -26 28.88 -26 1 C-8 0 -8 0 0 0 Z " fill="#000000" transform="translate(649,24)"/>
<path d="M0 0 C0.71800781 0.00451172 1.43601562 0.00902344 2.17578125 0.01367188 C3.90889208 0.02522595 5.6419587 0.04314842 7.375 0.0625 C9.28513621 16.53742477 8.4306355 33.21185526 7.9375 49.75 C7.9179425 50.44678864 7.89838501 51.14357727 7.87823486 51.86148071 C7.82113813 53.84921559 7.75643104 55.83672743 7.69140625 57.82421875 C7.65474854 58.97881592 7.61809082 60.13341309 7.58032227 61.32299805 C7.375 64.0625 7.375 64.0625 6.375 66.0625 C-1.875 66.0625 -10.125 66.0625 -18.625 66.0625 C-18.625 44.6125 -18.625 23.1625 -18.625 1.0625 C-12.28384075 0.42838408 -6.31477133 -0.07788617 0 0 Z " fill="#000000" transform="translate(367.625,40.9375)"/>
<path d="M0 0 C3.55230779 1.1841026 4.24146766 2.29587186 6.4375 5.25 C7.01371094 6.01828125 7.58992188 6.7865625 8.18359375 7.578125 C8.78300781 8.37734375 9.38242188 9.1765625 10 10 C10.72445312 10.80695313 11.44890625 11.61390625 12.1953125 12.4453125 C14.33146471 15.46921628 14.43267129 16.96483524 14.4375 20.625 C14.68917041 26.50614016 15.89788001 31.53299764 17.5625 37.125 C19.52674672 43.95177786 20.48833442 50.32698319 20.5 57.4375 C20.50882202 58.63560303 20.50882202 58.63560303 20.51782227 59.85791016 C20.44701054 63.12370486 20.22867175 65.57921739 18.65625 68.47265625 C14.20321076 72.57911461 6.62078249 71.41844564 0.9375 71.625 C-0.27228516 71.6765625 -1.48207031 71.728125 -2.72851562 71.78125 C-4.45811523 71.84699219 -4.45811523 71.84699219 -6.22265625 71.9140625 C-7.28234619 71.9548291 -8.34203613 71.9955957 -9.43383789 72.03759766 C-12 72 -12 72 -14 71 C-13.8125 69.125 -13.8125 69.125 -13 67 C-10.4375 65.75 -10.4375 65.75 -8 65 C-8.474375 64.608125 -8.94875 64.21625 -9.4375 63.8125 C-11.35179633 61.59191626 -11.61266988 59.86624291 -12 57 C-12.66 57 -13.32 57 -14 57 C-13.41895169 45.37903376 -7.98786179 35.6506791 -2.67944336 25.51928711 C1.69974865 17.03148558 1.53336412 9.20018474 0 0 Z M-1.86328125 36.10546875 C-5.7336765 42.5561275 -6.96258967 49.55944203 -6 57 C-4.7259285 60.0577716 -3.80994043 61.4330417 -1.125 63.3125 C1.4829321 64.15624274 3.27856306 64.41868261 6 64 C9.42609783 60.94098408 9.57599326 57.40967012 10 53 C8.02 53.99 8.02 53.99 6 55 C6.2165625 54.07058594 6.433125 53.14117187 6.65625 52.18359375 C7.07390625 50.32927734 7.07390625 50.32927734 7.5 48.4375 C7.7784375 47.21933594 8.056875 46.00117187 8.34375 44.74609375 C8.99223112 41.04434735 9.25942808 37.74780916 9 34 C7.18192915 31.82079493 7.18192915 31.82079493 4.6875 31.5 C1.40145008 32.11135813 0.10401526 33.45551414 -1.86328125 36.10546875 Z " fill="#F0592D" transform="translate(93,64)"/>
<path d="M0 0 C3.8119332 1.55300982 6.21462933 4.08232423 9 7 C10.55800403 8.58775758 12.12083806 10.17078467 13.6875 11.75 C14.83798828 12.91789062 14.83798828 12.91789062 16.01171875 14.109375 C17.8610699 16.05230615 17.8610699 16.05230615 20 17 C19.58990286 18.46019436 19.17140121 19.91802772 18.75 21.375 C18.40195313 22.59316406 18.40195313 22.59316406 18.046875 23.8359375 C16.5678752 28.30604883 14.78127091 32.64304984 13 37 C8.55291355 37.43088073 4.10548654 37.85800371 -0.34228516 38.28173828 C-1.85345053 38.42622832 -3.36452032 38.57172176 -4.87548828 38.71826172 C-7.05476559 38.92943757 -9.23436786 39.13693159 -11.4140625 39.34375 C-12.7232666 39.46943359 -14.0324707 39.59511719 -15.38134766 39.72460938 C-18.60730777 39.97011491 -21.76684608 40.05250047 -25 40 C-25.02888514 36.85418577 -25.04675923 33.70840531 -25.0625 30.5625 C-25.07087891 29.66466797 -25.07925781 28.76683594 -25.08789062 27.84179688 C-25.09111328 26.98779297 -25.09433594 26.13378906 -25.09765625 25.25390625 C-25.10551147 24.06776733 -25.10551147 24.06776733 -25.11352539 22.85766602 C-25 21 -25 21 -24 20 C-22.44246949 19.77329092 -20.87622641 19.60564908 -19.30859375 19.46484375 C-18.36435547 19.37783203 -17.42011719 19.29082031 -16.44726562 19.20117188 C-15.45404297 19.11416016 -14.46082031 19.02714844 -13.4375 18.9375 C-12.44041016 18.84662109 -11.44332031 18.75574219 -10.41601562 18.66210938 C-7.94434298 18.43741186 -5.47236744 18.21689649 -3 18 C-3.6496875 17.59007813 -4.299375 17.18015625 -4.96875 16.7578125 C-5.8040625 16.21898438 -6.639375 15.68015625 -7.5 15.125 C-8.3353125 14.59132813 -9.170625 14.05765625 -10.03125 13.5078125 C-10.6809375 13.01023437 -11.330625 12.51265625 -12 12 C-12 11.34 -12 10.68 -12 10 C-10.23947136 8.41929472 -8.41580202 6.90833714 -6.5625 5.4375 C-5.55316406 4.63183594 -4.54382813 3.82617188 -3.50390625 2.99609375 C-2.67761719 2.33738281 -1.85132813 1.67867187 -1 1 C-0.67 0.67 -0.34 0.34 0 0 Z " fill="#000000" transform="translate(1008,13)"/>
<path d="M0 0 C0.495 8.91 0.495 8.91 1 18 C-2.12341709 19.04113903 -4.2030464 19.08746769 -7.47265625 19.02734375 C-9.06883789 19.00897461 -9.06883789 19.00897461 -10.69726562 18.99023438 C-12.94472498 18.95501592 -15.19212713 18.91593974 -17.43945312 18.87304688 C-18.50228516 18.86208984 -19.56511719 18.85113281 -20.66015625 18.83984375 C-21.63605713 18.82300537 -22.61195801 18.80616699 -23.61743164 18.78881836 C-26.18767439 18.7597311 -26.18767439 18.7597311 -28 21 C-28.33 22.32 -28.66 23.64 -29 25 C-33.62 25 -38.24 25 -43 25 C-43.3600058 18.39989368 -43.01625752 11.76575181 -38.7109375 6.390625 C-33.73506763 1.86710693 -28.36728527 0.78903197 -21.8984375 1.09375 C-20.05646571 1.21742525 -18.21526426 1.35308815 -16.375 1.5 C-10.40632255 1.9725203 -5.34849097 0 0 0 Z " fill="#000000" transform="translate(380,14)"/>
<path d="M0 0 C0 6.6 0 13.2 0 20 C-6.6 20.66 -13.2 21.32 -20 22 C-20 15.4 -20 8.8 -20 2 C-17.81375 1.67 -15.6275 1.34 -13.375 1 C-12.14523437 0.814375 -10.91546875 0.62875 -9.6484375 0.4375 C-6 0 -6 0 0 0 Z " fill="#000000" transform="translate(500,30)"/>
<path d="M0 0 C0 6.27 0 12.54 0 19 C-2.1783456 20.0891728 -3.7203964 20.28032356 -6.1328125 20.53515625 C-6.85871582 20.61386963 -7.58461914 20.69258301 -8.33251953 20.77368164 C-9.25403809 20.8689917 -10.17555664 20.96430176 -11.125 21.0625 C-15.518125 21.5265625 -15.518125 21.5265625 -20 22 C-20 15.4 -20 8.8 -20 2 C-17.53988745 0.76994372 -15.55305664 0.67564492 -12.8125 0.4375 C-11.89082031 0.35371094 -10.96914062 0.26992188 -10.01953125 0.18359375 C-6.68528435 -0.01913536 -3.34040439 0 0 0 Z " fill="#000000" transform="translate(1218,33)"/>
<path d="M0 0 C0 6.6 0 13.2 0 20 C-4.41406122 20.88281224 -8.36199545 21.1174325 -12.8125 21.0625 C-15.184375 21.041875 -17.55625 21.02125 -20 21 C-20 14.73 -20 8.46 -20 2 C-16.885625 1.67 -13.77125 1.34 -10.5625 1 C-9.57967041 0.89558594 -8.59684082 0.79117188 -7.58422852 0.68359375 C-6.43071899 0.56177734 -6.43071899 0.56177734 -5.25390625 0.4375 C-4.46314697 0.35371094 -3.6723877 0.26992187 -2.85766602 0.18359375 C-1 0 -1 0 0 0 Z " fill="#000000" transform="translate(1118,115)"/>
<path d="M0 0 C0.02888514 3.14581423 0.04675923 6.29159469 0.0625 9.4375 C0.07087891 10.33533203 0.07925781 11.23316406 0.08789062 12.15820312 C0.09272461 13.43920898 0.09272461 13.43920898 0.09765625 14.74609375 C0.10551147 15.93223267 0.10551147 15.93223267 0.11352539 17.14233398 C0 19 0 19 -1 20 C-7.16419697 21.00868678 -12.63422925 21 -19 21 C-19 14.4 -19 7.8 -19 1 C-5.875 -0.07142857 -5.875 -0.07142857 0 0 Z " fill="#000000" transform="translate(862,29)"/>
<path d="M0 0 C0 6.6 0 13.2 0 20 C-6.6 20.66 -13.2 21.32 -20 22 C-19.67 15.4 -19.34 8.8 -19 2 C-16.421875 1.67 -13.84375 1.34 -11.1875 1 C-9.97549927 0.84337891 -9.97549927 0.84337891 -8.73901367 0.68359375 C-5.80379986 0.31241127 -2.96154295 0 0 0 Z " fill="#000000" transform="translate(1327,112)"/>
<path d="M0 0 C0 6.27 0 12.54 0 19 C-6.50458017 20.06197227 -12.40214086 21 -19 21 C-19 14.4 -19 7.8 -19 1 C-12.37003298 0.263337 -6.57089805 -0.09254786 0 0 Z " fill="#000000" transform="translate(333,28)"/>
<path d="M0 0 C0 6.27 0 12.54 0 19 C-3.3103125 19.495 -3.3103125 19.495 -6.6875 20 C-7.92886719 20.185625 -9.17023437 20.37125 -10.44921875 20.5625 C-14 21 -14 21 -19 21 C-19 14.4 -19 7.8 -19 1 C-12.42255318 0.06036474 -6.60820813 -0.07424953 0 0 Z " fill="#000000" transform="translate(596,0)"/>
</svg>
