<?xml version="1.0" encoding="UTF-8" standalone="no"?>
<!-- Created with Inkscape (http://www.inkscape.org/) -->

<svg
   width="1366.7983"
   height="135.9465"
   viewBox="0 0 1366.7983 135.9465"
   version="1.1"
   id="svg5"
   xml:space="preserve"
   inkscape:version="1.2.2 (b0a8486541, 2022-12-01)"
   sodipodi:docname="wfs-light.svg"
   xmlns:inkscape="http://www.inkscape.org/namespaces/inkscape"
   xmlns:sodipodi="http://sodipodi.sourceforge.net/DTD/sodipodi-0.dtd"
   xmlns="http://www.w3.org/2000/svg"
   xmlns:svg="http://www.w3.org/2000/svg"><sodipodi:namedview
     id="namedview7"
     pagecolor="#505050"
     bordercolor="#ffffff"
     borderopacity="1"
     inkscape:showpageshadow="0"
     inkscape:pageopacity="0"
     inkscape:pagecheckerboard="1"
     inkscape:deskcolor="#505050"
     inkscape:document-units="px"
     showgrid="false"
     inkscape:zoom="1.3696959"
     inkscape:cx="421.62645"
     inkscape:cy="70.453597"
     inkscape:window-width="1920"
     inkscape:window-height="1057"
     inkscape:window-x="0"
     inkscape:window-y="0"
     inkscape:window-maximized="1"
     inkscape:current-layer="layer1" /><defs
     id="defs2"><rect
       x="372.17258"
       y="105.64592"
       width="632.08075"
       height="523.6156"
       id="rect292" /><rect
       x="380.10187"
       y="115.13203"
       width="887.66125"
       height="395.19009"
       id="rect286" /></defs><g
     inkscape:label="Layer 1"
     inkscape:groupmode="layer"
     id="layer1"
     transform="translate(246.15177,-184.7894)"><text
       xml:space="preserve"
       id="text284"
       style="font-style:normal;font-weight:normal;font-size:40px;line-height:1.25;font-family:sans-serif;white-space:pre;shape-inside:url(#rect286);display:inline;fill:#000000;fill-opacity:1;stroke:none"
       transform="matrix(2.5,0,0,2.5,-923.37342,-374.1624)" /><text
       xml:space="preserve"
       id="text290"
       style="font-style:normal;font-variant:normal;font-weight:normal;font-stretch:normal;font-size:48px;line-height:1.25;font-family:'Noto Sans';-inkscape-font-specification:'Noto Sans, Normal';font-variant-ligatures:normal;font-variant-caps:normal;font-variant-numeric:normal;font-variant-east-asian:normal;white-space:pre;shape-inside:url(#rect292);display:inline;fill:#ffffff;fill-opacity:1;stroke:none"
       transform="matrix(2.5,0,0,2.5,-912.34259,-75.238583)"><tspan
         x="372.17188"
         y="149.32049"
         id="tspan1372">Write Free Software</tspan></text><g
       id="g1236"
       transform="matrix(0.35406138,0,0,0.35406138,-246.15177,162.12947)"><path
         d="m 576,336 a 16,16 0 1 1 32,0 16,16 0 1 1 -32,0 z"
         id="path508" /><path
         d="m 544,128 v 224 c 0,17.7 14.3,32 32,32 h 32 c 17.7,0 32,-14.3 32,-32 V 144 c 0,-8.8 -7.2,-16 -16,-16 z"
         id="path506"
         style="fill:#cc0000" /><path
         d="m 48,320 a 16,16 0 1 1 0,32 16,16 0 1 1 0,-32 z"
         id="path504" /><path
         d="m 16,128 c -8.8,0 -16,7.2 -16,16 v 208 c 0,17.7 14.3,32 32,32 h 32 c 17.7,0 32,-14.3 32,-32 V 128 Z"
         id="path502"
         style="fill:#3366cc" /><path
         d="m 346.2,209.6 -51.7,40.2 C 263,274.4 217.3,268 193.7,235.6 171.5,205.1 177.1,162.5 206.4,138.8 L 289.6,71.5 C 278,66.6 265.5,64.1 252.8,64.1 234,64 215.7,69.6 200,80 l -72,48 v 224 h 28.2 l 91.4,83.4 c 19.6,17.9 49.9,16.5 67.8,-3.1 5.5,-6.1 9.2,-13.2 11.1,-20.6 l 17,15.6 c 19.5,17.9 49.9,16.6 67.8,-2.9 4.5,-4.9 7.8,-10.6 9.9,-16.5 19.4,13 45.8,10.3 62.1,-7.5 17.9,-19.5 16.6,-49.9 -2.9,-67.8 z"
         id="path500"
         style="fill:#ffcc00" /><path
         d="m 323.4,85.2 -96.8,78.4 c -16.1,13 -19.2,36.4 -7,53.1 12.9,17.8 38,21.3 55.3,7.8 l 99.3,-77.2 c 7,-5.4 17,-4.2 22.5,2.8 5.5,7 4.2,17 -2.8,22.5 l -20.9,16.2 139,128 V 128 h -0.7 L 507.4,125.5 434.8,79 c -15.3,-9.8 -33.2,-15 -51.4,-15 -21.8,0 -43,7.5 -60,21.2 z"
         id="path490"
         style="fill:#ff9900" /></g></g></svg>
