<?xml version="1.0" encoding="UTF-8" standalone="no"?>
<!-- Created with Inkscape (http://www.inkscape.org/) -->

<svg
   width="1366.7983"
   height="135.9465"
   viewBox="0 0 1366.7983 135.9465"
   version="1.1"
   id="svg5"
   xml:space="preserve"
   inkscape:version="1.2.2 (b0a8486541, 2022-12-01)"
   sodipodi:docname="wfs-dark.svg"
   xmlns:inkscape="http://www.inkscape.org/namespaces/inkscape"
   xmlns:sodipodi="http://sodipodi.sourceforge.net/DTD/sodipodi-0.dtd"
   xmlns="http://www.w3.org/2000/svg"
   xmlns:svg="http://www.w3.org/2000/svg"><sodipodi:namedview
     id="namedview7"
     pagecolor="#505050"
     bordercolor="#ffffff"
     borderopacity="1"
     inkscape:showpageshadow="0"
     inkscape:pageopacity="0"
     inkscape:pagecheckerboard="1"
     inkscape:deskcolor="#505050"
     inkscape:document-units="px"
     showgrid="false"
     inkscape:zoom="0.96852123"
     inkscape:cx="641.69992"
     inkscape:cy="49.04384"
     inkscape:window-width="1920"
     inkscape:window-height="1057"
     inkscape:window-x="0"
     inkscape:window-y="0"
     inkscape:window-maximized="1"
     inkscape:current-layer="layer1" /><defs
     id="defs2"><rect
       x="372.17258"
       y="105.64592"
       width="632.08075"
       height="523.6156"
       id="rect292" /><rect
       x="380.10187"
       y="115.13203"
       width="887.66125"
       height="395.19009"
       id="rect286" /></defs><g
     inkscape:label="Layer 1"
     inkscape:groupmode="layer"
     id="layer1"
     transform="translate(246.15177,-184.7894)"><text
       xml:space="preserve"
       id="text284"
       style="font-style:normal;font-weight:normal;font-size:40px;line-height:1.25;font-family:sans-serif;white-space:pre;shape-inside:url(#rect286);display:inline;fill:#000000;fill-opacity:1;stroke:none"
       transform="matrix(2.5,0,0,2.5,-923.37342,-374.1624)" /><g
       aria-label="Write Free Software"
       transform="matrix(2.5,0,0,2.5,-912.34259,-75.238583)"
       id="text290"
       style="font-size:48px;line-height:1.25;font-family:'Noto Sans';-inkscape-font-specification:'Noto Sans, Normal';white-space:pre;shape-inside:url(#rect292);display:inline;opacity:1;vector-effect:none;stop-color:#000000;stop-opacity:1"><path
         d="m 416.18788,115.04849 -9.12,34.272 h -4.368 l -6.67201,-22.464 q -0.384,-1.392 -0.76799,-2.784 -0.38401,-1.392 -0.62401,-2.448 -0.24,-1.104 -0.336,-1.536 -0.048,0.624 -0.52799,2.688 -0.43201,2.016 -1.10401,4.224 l -6.47999,22.32 h -4.368 l -9.072,-34.272 h 4.512 l 5.32799,20.928 q 0.57601,2.208 0.96,4.272 0.432,2.064 0.672,3.888 0.24,-1.872 0.72001,-4.08 0.47999,-2.208 1.104,-4.32 l 6.048,-20.688 h 4.464 l 6.288,20.832 q 0.67199,2.208 1.15199,4.416 0.48,2.16 0.72,3.84 0.24,-1.776 0.672,-3.84 0.43201,-2.112 1.008,-4.368 l 5.28001,-20.88 z"
         style="vector-effect:none;stop-color:#000000;stop-opacity:1"
         id="path963" /><path
         d="m 432.41179,123.11249 q 0.72,0 1.536,0.096 0.864,0.048 1.488,0.192 l -0.528,3.888 q -0.624,-0.144 -1.392,-0.24 -0.72,-0.096 -1.392,-0.096 -1.968,0 -3.696,1.104 -1.728,1.056 -2.784,3.024 -1.008,1.92 -1.008,4.512 v 13.728 h -4.224 v -25.728 h 3.456 l 0.48,4.704 h 0.192 q 1.248,-2.112 3.216,-3.648 1.968,-1.536 4.656,-1.536 z"
         style="vector-effect:none;stop-color:#000000;stop-opacity:1"
         id="path965" /><path
         d="m 442.3957,113.94449 q 0.96,0 1.68,0.672 0.768,0.624 0.768,2.016 0,1.344 -0.768,2.016 -0.72,0.672 -1.68,0.672 -1.056,0 -1.776,-0.672 -0.72,-0.672 -0.72,-2.016 0,-1.392 0.72,-2.016 0.72,-0.672 1.776,-0.672 z m 2.064,9.648 v 25.728 h -4.224 v -25.728 z"
         style="vector-effect:none;stop-color:#000000;stop-opacity:1"
         id="path967" /><path
         d="m 461.21167,146.34449 q 0.96,0 1.968,-0.144 1.008,-0.192 1.632,-0.384 v 3.216 q -0.672,0.336 -1.92,0.528 -1.248,0.24 -2.4,0.24 -2.016,0 -3.744,-0.672 -1.68,-0.72 -2.736,-2.448 -1.056,-1.728 -1.056,-4.848 v -14.976 h -3.648 v -2.016 l 3.696,-1.68 1.68,-5.472 h 2.496 v 5.904 h 7.44 v 3.264 h -7.44 v 14.88 q 0,2.352 1.104,3.504 1.152,1.104 2.928,1.104 z"
         style="vector-effect:none;stop-color:#000000;stop-opacity:1"
         id="path969" /><path
         d="m 479.88358,123.11249 q 3.312,0 5.664,1.44 2.4,1.44 3.648,4.08 1.296,2.592 1.296,6.096 v 2.544 h -17.616 q 0.096,4.368 2.208,6.672 2.16,2.256 6,2.256 2.448,0 4.32,-0.432 1.92,-0.48 3.936,-1.344 v 3.696 q -1.968,0.864 -3.888,1.248 -1.92,0.432 -4.56,0.432 -3.648,0 -6.48,-1.488 -2.784,-1.488 -4.368,-4.416 -1.536,-2.976 -1.536,-7.248 0,-4.224 1.392,-7.248 1.44,-3.024 3.984,-4.656 2.592,-1.632 6,-1.632 z m -0.048,3.456 q -3.024,0 -4.8,1.968 -1.728,1.92 -2.064,5.376 h 13.104 q -0.048,-3.264 -1.536,-5.28 -1.488,-2.064 -4.704,-2.064 z"
         style="vector-effect:none;stop-color:#000000;stop-opacity:1"
         id="path971" /><path
         d="m 514.39546,149.32049 h -4.32 v -34.272 h 19.152 v 3.792 h -14.832 v 12.144 h 13.92 v 3.792 h -13.92 z"
         style="vector-effect:none;stop-color:#000000;stop-opacity:1"
         id="path973" /><path
         d="m 546.41142,123.11249 q 0.72,0 1.536,0.096 0.864,0.048 1.488,0.192 l -0.528,3.888 q -0.624,-0.144 -1.392,-0.24 -0.72,-0.096 -1.392,-0.096 -1.968,0 -3.696,1.104 -1.728,1.056 -2.784,3.024 -1.008,1.92 -1.008,4.512 v 13.728 h -4.224 v -25.728 h 3.456 l 0.48,4.704 h 0.192 q 1.248,-2.112 3.216,-3.648 1.968,-1.536 4.656,-1.536 z"
         style="vector-effect:none;stop-color:#000000;stop-opacity:1"
         id="path975" /><path
         d="m 563.21131,123.11249 q 3.312,0 5.664,1.44 2.4,1.44 3.648,4.08 1.296,2.592 1.296,6.096 v 2.544 h -17.616 q 0.096,4.368 2.208,6.672 2.16,2.256 6,2.256 2.448,0 4.32,-0.432 1.92,-0.48 3.936,-1.344 v 3.696 q -1.968,0.864 -3.888,1.248 -1.92,0.432 -4.56,0.432 -3.648,0 -6.48,-1.488 -2.784,-1.488 -4.368,-4.416 -1.536,-2.976 -1.536,-7.248 0,-4.224 1.392,-7.248 1.44,-3.024 3.984,-4.656 2.592,-1.632 6,-1.632 z m -0.048,3.456 q -3.024,0 -4.8,1.968 -1.728,1.92 -2.064,5.376 h 13.104 q -0.048,-3.264 -1.536,-5.28 -1.488,-2.064 -4.704,-2.064 z"
         style="vector-effect:none;stop-color:#000000;stop-opacity:1"
         id="path977" /><path
         d="m 590.28327,123.11249 q 3.312,0 5.664,1.44 2.4,1.44 3.648,4.08 1.296,2.592 1.296,6.096 v 2.544 h -17.616 q 0.096,4.368 2.208,6.672 2.16,2.256 6,2.256 2.448,0 4.32,-0.432 1.92,-0.48 3.936,-1.344 v 3.696 q -1.968,0.864 -3.888,1.248 -1.92,0.432 -4.56,0.432 -3.648,0 -6.48,-1.488 -2.784,-1.488 -4.368,-4.416 -1.536,-2.976 -1.536,-7.248 0,-4.224 1.392,-7.248 1.44,-3.024 3.984,-4.656 2.592,-1.632 6,-1.632 z m -0.048,3.456 q -3.024,0 -4.8,1.968 -1.728,1.92 -2.064,5.376 h 13.104 q -0.048,-3.264 -1.536,-5.28 -1.488,-2.064 -4.704,-2.064 z"
         style="vector-effect:none;stop-color:#000000;stop-opacity:1"
         id="path979" /><path
         d="m 639.91515,140.15249 q 0,4.56 -3.312,7.104 -3.312,2.544 -8.928,2.544 -2.88,0 -5.328,-0.432 -2.448,-0.432 -4.08,-1.2 v -4.128 q 1.728,0.768 4.272,1.392 2.592,0.624 5.328,0.624 3.84,0 5.76,-1.488 1.968,-1.488 1.968,-4.032 0,-1.68 -0.72,-2.832 -0.72,-1.152 -2.496,-2.112 -1.728,-1.008 -4.848,-2.112 -4.368,-1.584 -6.624,-3.888 -2.208,-2.304 -2.208,-6.288 0,-2.736 1.392,-4.656 1.392,-1.968 3.84,-3.024 2.496,-1.056 5.712,-1.056 2.832,0 5.184,0.528 2.352,0.528 4.272,1.392 l -1.344,3.696 q -1.776,-0.768 -3.888,-1.296 -2.064,-0.528 -4.32,-0.528 -3.216,0 -4.848,1.392 -1.632,1.344 -1.632,3.6 0,1.728 0.72,2.88 0.72,1.152 2.352,2.064 1.632,0.912 4.416,1.968 3.024,1.104 5.088,2.4 2.112,1.248 3.168,3.024 1.104,1.776 1.104,4.464 z"
         style="vector-effect:none;stop-color:#000000;stop-opacity:1"
         id="path981" /><path
         d="m 668.61914,136.40849 q 0,6.384 -3.264,9.888 -3.216,3.504 -8.736,3.504 -3.408,0 -6.096,-1.536 -2.64,-1.584 -4.176,-4.56 -1.536,-3.024 -1.536,-7.296 0,-6.384 3.216,-9.84 3.216,-3.456 8.736,-3.456 3.504,0 6.144,1.584 2.688,1.536 4.176,4.512 1.536,2.928 1.536,7.2 z m -19.44,0 q 0,4.56 1.776,7.248 1.824,2.64 5.76,2.64 3.888,0 5.712,-2.64 1.824,-2.688 1.824,-7.248 0,-4.56 -1.824,-7.152 -1.824,-2.592 -5.76,-2.592 -3.936,0 -5.712,2.592 -1.776,2.592 -1.776,7.152 z"
         style="vector-effect:none;stop-color:#000000;stop-opacity:1"
         id="path983" /><path
         d="m 687.14712,126.85649 h -6.48 v 22.464 h -4.224 v -22.464 h -4.512 v -1.968 l 4.512,-1.44 v -1.488 q 0,-4.992 2.208,-7.152 2.208,-2.208 6.144,-2.208 1.536,0 2.784,0.288 1.296,0.24 2.208,0.576 l -1.104,3.312 q -0.768,-0.24 -1.776,-0.48 -1.008,-0.24 -2.064,-0.24 -2.112,0 -3.168,1.44 -1.008,1.392 -1.008,4.416 v 1.68 h 6.48 z"
         style="vector-effect:none;stop-color:#000000;stop-opacity:1"
         id="path985" /><path
         d="m 700.39511,146.34449 q 0.96,0 1.968,-0.144 1.008,-0.192 1.632,-0.384 v 3.216 q -0.672,0.336 -1.92,0.528 -1.248,0.24 -2.4,0.24 -2.016,0 -3.744,-0.672 -1.68,-0.72 -2.736,-2.448 -1.056,-1.728 -1.056,-4.848 v -14.976 h -3.648 v -2.016 l 3.696,-1.68 1.68,-5.472 h 2.496 v 5.904 h 7.44 v 3.264 h -7.44 v 14.88 q 0,2.352 1.104,3.504 1.152,1.104 2.928,1.104 z"
         style="vector-effect:none;stop-color:#000000;stop-opacity:1"
         id="path987" /><path
         d="m 725.73903,134.77649 q -0.624,-1.968 -1.104,-3.84 -0.432,-1.92 -0.672,-2.976 h -0.192 q -0.192,1.056 -0.624,2.976 -0.432,1.872 -1.104,3.888 l -4.608,14.448 h -4.8 l -7.056,-25.728 h 4.368 l 3.552,13.728 q 0.528,2.064 1.008,4.176 0.48,2.112 0.672,3.504 h 0.192 q 0.192,-0.816 0.432,-2.016 0.288,-1.2 0.624,-2.496 0.336,-1.344 0.672,-2.4 l 4.56,-14.496 h 4.608 l 4.416,14.496 q 0.528,1.632 1.008,3.552 0.528,1.92 0.72,3.312 h 0.192 q 0.144,-1.2 0.624,-3.312 0.528,-2.112 1.104,-4.32 l 3.6,-13.728 h 4.32 l -7.152,25.728 h -4.944 z"
         style="vector-effect:none;stop-color:#000000;stop-opacity:1"
         id="path989" /><path
         d="m 756.60299,123.16049 q 4.704,0 6.96,2.064 2.256,2.064 2.256,6.576 v 17.52 h -3.072 l -0.816,-3.648 h -0.192 q -1.68,2.112 -3.552,3.12 -1.824,1.008 -5.088,1.008 -3.504,0 -5.808,-1.824 -2.304,-1.872 -2.304,-5.808 0,-3.84 3.024,-5.904 3.024,-2.112 9.312,-2.304 l 4.368,-0.144 v -1.536 q 0,-3.216 -1.392,-4.464 -1.392,-1.248 -3.936,-1.248 -2.016,0 -3.84,0.624 -1.824,0.576 -3.408,1.344 l -1.296,-3.168 q 1.68,-0.912 3.984,-1.536 2.304,-0.672 4.8,-0.672 z m 1.248,13.728 q -4.8,0.192 -6.672,1.536 -1.824,1.344 -1.824,3.792 0,2.16 1.296,3.168 1.344,1.008 3.408,1.008 3.264,0 5.424,-1.776 2.16,-1.824 2.16,-5.568 v -2.304 z"
         style="vector-effect:none;stop-color:#000000;stop-opacity:1"
         id="path991" /><path
         d="m 785.78694,123.11249 q 0.72,0 1.536,0.096 0.864,0.048 1.488,0.192 l -0.528,3.888 q -0.624,-0.144 -1.392,-0.24 -0.72,-0.096 -1.392,-0.096 -1.968,0 -3.696,1.104 -1.728,1.056 -2.784,3.024 -1.008,1.92 -1.008,4.512 v 13.728 h -4.224 v -25.728 h 3.456 l 0.48,4.704 h 0.192 q 1.248,-2.112 3.216,-3.648 1.968,-1.536 4.656,-1.536 z"
         style="vector-effect:none;stop-color:#000000;stop-opacity:1"
         id="path993" /><path
         d="m 802.58683,123.11249 q 3.312,0 5.664,1.44 2.4,1.44 3.648,4.08 1.296,2.592 1.296,6.096 v 2.544 h -17.616 q 0.096,4.368 2.208,6.672 2.16,2.256 6,2.256 2.448,0 4.32,-0.432 1.92,-0.48 3.936,-1.344 v 3.696 q -1.968,0.864 -3.888,1.248 -1.92,0.432 -4.56,0.432 -3.648,0 -6.48,-1.488 -2.784,-1.488 -4.368,-4.416 -1.536,-2.976 -1.536,-7.248 0,-4.224 1.392,-7.248 1.44,-3.024 3.984,-4.656 2.592,-1.632 6,-1.632 z m -0.048,3.456 q -3.024,0 -4.8,1.968 -1.728,1.92 -2.064,5.376 h 13.104 q -0.048,-3.264 -1.536,-5.28 -1.488,-2.064 -4.704,-2.064 z"
         style="vector-effect:none;stop-color:#000000;stop-opacity:1"
         id="path995" /></g><g
       id="g1236"
       transform="matrix(0.35406138,0,0,0.35406138,-246.15177,162.12947)"><path
         d="m 576,336 a 16,16 0 1 1 32,0 16,16 0 1 1 -32,0 z"
         id="path508" /><path
         d="m 544,128 v 224 c 0,17.7 14.3,32 32,32 h 32 c 17.7,0 32,-14.3 32,-32 V 144 c 0,-8.8 -7.2,-16 -16,-16 z"
         id="path506"
         style="fill:#cc0000" /><path
         d="m 48,320 a 16,16 0 1 1 0,32 16,16 0 1 1 0,-32 z"
         id="path504" /><path
         d="m 16,128 c -8.8,0 -16,7.2 -16,16 v 208 c 0,17.7 14.3,32 32,32 h 32 c 17.7,0 32,-14.3 32,-32 V 128 Z"
         id="path502"
         style="fill:#3366cc" /><path
         d="m 346.2,209.6 -51.7,40.2 C 263,274.4 217.3,268 193.7,235.6 171.5,205.1 177.1,162.5 206.4,138.8 L 289.6,71.5 C 278,66.6 265.5,64.1 252.8,64.1 234,64 215.7,69.6 200,80 l -72,48 v 224 h 28.2 l 91.4,83.4 c 19.6,17.9 49.9,16.5 67.8,-3.1 5.5,-6.1 9.2,-13.2 11.1,-20.6 l 17,15.6 c 19.5,17.9 49.9,16.6 67.8,-2.9 4.5,-4.9 7.8,-10.6 9.9,-16.5 19.4,13 45.8,10.3 62.1,-7.5 17.9,-19.5 16.6,-49.9 -2.9,-67.8 z"
         id="path500"
         style="fill:#ffcc00" /><path
         d="m 323.4,85.2 -96.8,78.4 c -16.1,13 -19.2,36.4 -7,53.1 12.9,17.8 38,21.3 55.3,7.8 l 99.3,-77.2 c 7,-5.4 17,-4.2 22.5,2.8 5.5,7 4.2,17 -2.8,22.5 l -20.9,16.2 139,128 V 128 h -0.7 L 507.4,125.5 434.8,79 c -15.3,-9.8 -33.2,-15 -51.4,-15 -21.8,0 -43,7.5 -60,21.2 z"
         id="path490"
         style="fill:#ff9900" /></g></g></svg>
